<?xml version="1.0" encoding="UTF-8"?>
<!--Generator: Apple Native CoreSVG 149-->
<!DOCTYPE svg
PUBLIC "-//W3C//DTD SVG 1.1//EN"
       "http://www.w3.org/Graphics/SVG/1.1/DTD/svg11.dtd">
<svg version="1.1" xmlns="http://www.w3.org/2000/svg" xmlns:xlink="http://www.w3.org/1999/xlink" width="3300" height="2200">
 <!--glyph: "uni1008F5.medium", point size: 100.0, font version: "17.0d9e1", template writer version: "59"-->
 <style>.hierarchical-0:secondary {fill:#4D4D4D}
.hierarchical-1:primary {fill:#212121}

.clearBehindLayer {}
.SFSymbolsPreview212121 {fill:#212121;opacity:1.0}
.SFSymbolsPreview4D4D4D {fill:#4D4D4D;opacity:1.0}
</style>
 <g id="Notes">
  <rect height="2200" id="artboard" style="fill:white;opacity:1" width="3300" x="0" y="0"/>
  <line style="fill:none;stroke:black;opacity:1;stroke-width:0.5;" x1="263" x2="3036" y1="292" y2="292"/>
  <text style="stroke:none;fill:black;font-family:sans-serif;font-size:13;font-weight:bold;" transform="matrix(1 0 0 1 263 322)">Weight/Scale Variations</text>
  <text style="stroke:none;fill:black;font-family:sans-serif;font-size:13;text-anchor:middle;" transform="matrix(1 0 0 1 559.711 322)">Ultralight</text>
  <text style="stroke:none;fill:black;font-family:sans-serif;font-size:13;text-anchor:middle;" transform="matrix(1 0 0 1 856.422 322)">Thin</text>
  <text style="stroke:none;fill:black;font-family:sans-serif;font-size:13;text-anchor:middle;" transform="matrix(1 0 0 1 1153.13 322)">Light</text>
  <text style="stroke:none;fill:black;font-family:sans-serif;font-size:13;text-anchor:middle;" transform="matrix(1 0 0 1 1449.84 322)">Regular</text>
  <text style="stroke:none;fill:black;font-family:sans-serif;font-size:13;text-anchor:middle;" transform="matrix(1 0 0 1 1746.56 322)">Medium</text>
  <text style="stroke:none;fill:black;font-family:sans-serif;font-size:13;text-anchor:middle;" transform="matrix(1 0 0 1 2043.27 322)">Semibold</text>
  <text style="stroke:none;fill:black;font-family:sans-serif;font-size:13;text-anchor:middle;" transform="matrix(1 0 0 1 2339.98 322)">Bold</text>
  <text style="stroke:none;fill:black;font-family:sans-serif;font-size:13;text-anchor:middle;" transform="matrix(1 0 0 1 2636.69 322)">Heavy</text>
  <text style="stroke:none;fill:black;font-family:sans-serif;font-size:13;text-anchor:middle;" transform="matrix(1 0 0 1 2933.4 322)">Black</text>
  <line style="fill:none;stroke:black;opacity:1;stroke-width:0.5;" x1="263" x2="3036" y1="1903" y2="1903"/>
  <g transform="matrix(1 0 0 1 263 1933)">
   <path d="M9.24805 0.830078Q10.8691 0.830078 12.2949 0.214844Q13.7207-0.400391 14.8096-1.49414Q15.8984-2.58789 16.5186-4.01367Q17.1387-5.43945 17.1387-7.05078Q17.1387-8.66211 16.5186-10.0879Q15.8984-11.5137 14.8047-12.6074Q13.7109-13.7012 12.2852-14.3164Q10.8594-14.9316 9.23828-14.9316Q7.62695-14.9316 6.20117-14.3164Q4.77539-13.7012 3.69141-12.6074Q2.60742-11.5137 1.9873-10.0879Q1.36719-8.66211 1.36719-7.05078Q1.36719-5.43945 1.9873-4.01367Q2.60742-2.58789 3.69629-1.49414Q4.78516-0.400391 6.21094 0.214844Q7.63672 0.830078 9.24805 0.830078ZM9.24805-0.654297Q7.91992-0.654297 6.7627-1.14746Q5.60547-1.64062 4.73145-2.51953Q3.85742-3.39844 3.36426-4.56055Q2.87109-5.72266 2.87109-7.05078Q2.87109-8.37891 3.35938-9.54102Q3.84766-10.7031 4.72168-11.582Q5.5957-12.4609 6.75293-12.9541Q7.91016-13.4473 9.23828-13.4473Q10.5762-13.4473 11.7334-12.9541Q12.8906-12.4609 13.7695-11.582Q14.6484-10.7031 15.1465-9.54102Q15.6445-8.37891 15.6445-7.05078Q15.6445-5.72266 15.1514-4.56055Q14.6582-3.39844 13.7842-2.51953Q12.9102-1.64062 11.748-1.14746Q10.5859-0.654297 9.24805-0.654297ZM5.83984-7.04102Q5.83984-6.71875 6.04492-6.51855Q6.25-6.31836 6.5918-6.31836L8.50586-6.31836L8.50586-4.39453Q8.50586-4.0625 8.70605-3.85742Q8.90625-3.65234 9.22852-3.65234Q9.56055-3.65234 9.76562-3.85742Q9.9707-4.0625 9.9707-4.39453L9.9707-6.31836L11.8945-6.31836Q12.2266-6.31836 12.4316-6.51855Q12.6367-6.71875 12.6367-7.04102Q12.6367-7.37305 12.4316-7.57812Q12.2266-7.7832 11.8945-7.7832L9.9707-7.7832L9.9707-9.69727Q9.9707-10.0391 9.76562-10.2441Q9.56055-10.4492 9.22852-10.4492Q8.90625-10.4492 8.70605-10.2441Q8.50586-10.0391 8.50586-9.69727L8.50586-7.7832L6.5918-7.7832Q6.25-7.7832 6.04492-7.57812Q5.83984-7.37305 5.83984-7.04102Z"/>
  </g>
  <g transform="matrix(1 0 0 1 281.867 1933)">
   <path d="M11.709 2.91016Q13.75 2.91016 15.5518 2.12891Q17.3535 1.34766 18.7305-0.0292969Q20.1074-1.40625 20.8887-3.20801Q21.6699-5.00977 21.6699-7.05078Q21.6699-9.0918 20.8887-10.8936Q20.1074-12.6953 18.7305-14.0723Q17.3535-15.4492 15.5469-16.2305Q13.7402-17.0117 11.6992-17.0117Q9.6582-17.0117 7.85645-16.2305Q6.05469-15.4492 4.68262-14.0723Q3.31055-12.6953 2.5293-10.8936Q1.74805-9.0918 1.74805-7.05078Q1.74805-5.00977 2.5293-3.20801Q3.31055-1.40625 4.6875-0.0292969Q6.06445 1.34766 7.86621 2.12891Q9.66797 2.91016 11.709 2.91016ZM11.709 1.25Q9.98047 1.25 8.47656 0.605469Q6.97266-0.0390625 5.83496-1.17676Q4.69727-2.31445 4.05762-3.81836Q3.41797-5.32227 3.41797-7.05078Q3.41797-8.7793 4.05762-10.2832Q4.69727-11.7871 5.83008-12.9297Q6.96289-14.0723 8.4668-14.7119Q9.9707-15.3516 11.6992-15.3516Q13.4277-15.3516 14.9316-14.7119Q16.4355-14.0723 17.5781-12.9297Q18.7207-11.7871 19.3652-10.2832Q20.0098-8.7793 20.0098-7.05078Q20.0098-5.32227 19.3701-3.81836Q18.7305-2.31445 17.5928-1.17676Q16.4551-0.0390625 14.9463 0.605469Q13.4375 1.25 11.709 1.25ZM7.39258-7.04102Q7.39258-6.68945 7.62695-6.46484Q7.86133-6.24023 8.23242-6.24023L10.8789-6.24023L10.8789-3.57422Q10.8789-3.21289 11.1035-2.9834Q11.3281-2.75391 11.6797-2.75391Q12.0508-2.75391 12.2852-2.9834Q12.5195-3.21289 12.5195-3.57422L12.5195-6.24023L15.1758-6.24023Q15.5371-6.24023 15.7715-6.46484Q16.0059-6.68945 16.0059-7.04102Q16.0059-7.41211 15.7715-7.6416Q15.5371-7.87109 15.1758-7.87109L12.5195-7.87109L12.5195-10.5176Q12.5195-10.8984 12.2852-11.1279Q12.0508-11.3574 11.6797-11.3574Q11.3281-11.3574 11.1035-11.1279Q10.8789-10.8984 10.8789-10.5176L10.8789-7.87109L8.23242-7.87109Q7.85156-7.87109 7.62207-7.6416Q7.39258-7.41211 7.39258-7.04102Z"/>
  </g>
  <g transform="matrix(1 0 0 1 305.646 1933)">
   <path d="M14.9707 5.66406Q17.0605 5.66406 18.96 5.01465Q20.8594 4.36523 22.4512 3.19336Q24.043 2.02148 25.2197 0.429688Q26.3965-1.16211 27.0459-3.06641Q27.6953-4.9707 27.6953-7.05078Q27.6953-9.14062 27.0459-11.04Q26.3965-12.9395 25.2197-14.5312Q24.043-16.123 22.4512-17.2998Q20.8594-18.4766 18.9551-19.126Q17.0508-19.7754 14.9609-19.7754Q12.8711-19.7754 10.9717-19.126Q9.07227-18.4766 7.48535-17.2998Q5.89844-16.123 4.72168-14.5312Q3.54492-12.9395 2.90039-11.04Q2.25586-9.14062 2.25586-7.05078Q2.25586-4.9707 2.90527-3.06641Q3.55469-1.16211 4.72656 0.429688Q5.89844 2.02148 7.49023 3.19336Q9.08203 4.36523 10.9814 5.01465Q12.8809 5.66406 14.9707 5.66406ZM14.9707 3.84766Q13.1641 3.84766 11.5283 3.2959Q9.89258 2.74414 8.53516 1.74805Q7.17773 0.751953 6.17676-0.610352Q5.17578-1.97266 4.62891-3.6084Q4.08203-5.24414 4.08203-7.05078Q4.08203-8.86719 4.62891-10.5029Q5.17578-12.1387 6.17188-13.501Q7.16797-14.8633 8.52539-15.8594Q9.88281-16.8555 11.5186-17.4023Q13.1543-17.9492 14.9609-17.9492Q16.7773-17.9492 18.4131-17.4023Q20.0488-16.8555 21.4111-15.8594Q22.7734-14.8633 23.7695-13.501Q24.7656-12.1387 25.3174-10.5029Q25.8691-8.86719 25.8691-7.05078Q25.8789-5.24414 25.332-3.6084Q24.7852-1.97266 23.7842-0.610352Q22.7832 0.751953 21.4209 1.74805Q20.0586 2.74414 18.4229 3.2959Q16.7871 3.84766 14.9707 3.84766ZM9.45312-7.04102Q9.45312-6.66016 9.71191-6.41113Q9.9707-6.16211 10.3711-6.16211L14.0625-6.16211L14.0625-2.46094Q14.0625-2.06055 14.3115-1.80664Q14.5605-1.55273 14.9414-1.55273Q15.3516-1.55273 15.6055-1.80664Q15.8594-2.06055 15.8594-2.46094L15.8594-6.16211L19.5605-6.16211Q19.9609-6.16211 20.2148-6.41113Q20.4688-6.66016 20.4688-7.04102Q20.4688-7.45117 20.2148-7.70508Q19.9609-7.95898 19.5605-7.95898L15.8594-7.95898L15.8594-11.6504Q15.8594-12.0605 15.6055-12.3145Q15.3516-12.5684 14.9414-12.5684Q14.5605-12.5684 14.3115-12.3096Q14.0625-12.0508 14.0625-11.6504L14.0625-7.95898L10.3711-7.95898Q9.96094-7.95898 9.70703-7.70508Q9.45312-7.45117 9.45312-7.04102Z"/>
  </g>
  <text style="stroke:none;fill:black;font-family:sans-serif;font-size:13;font-weight:bold;" transform="matrix(1 0 0 1 263 1953)">Design Variations</text>
  <text style="stroke:none;fill:black;font-family:sans-serif;font-size:13;" transform="matrix(1 0 0 1 263 1971)">Symbols are supported in up to nine weights and three scales.</text>
  <text style="stroke:none;fill:black;font-family:sans-serif;font-size:13;" transform="matrix(1 0 0 1 263 1989)">For optimal layout with text and other symbols, vertically align</text>
  <text style="stroke:none;fill:black;font-family:sans-serif;font-size:13;" transform="matrix(1 0 0 1 263 2007)">symbols with the adjacent text.</text>
  <line style="fill:none;stroke:#00AEEF;stroke-width:0.5;opacity:1.0;" x1="776" x2="776" y1="1919" y2="1933"/>
  <g transform="matrix(1 0 0 1 776 1933)">
   <path d="M3.31055 0.15625Q3.70117 0.15625 3.91602-0.00976562Q4.13086-0.175781 4.26758-0.585938L5.52734-4.0332L11.2891-4.0332L12.5488-0.585938Q12.6855-0.175781 12.9004-0.00976562Q13.1152 0.15625 13.4961 0.15625Q13.8867 0.15625 14.1162-0.0585938Q14.3457-0.273438 14.3457-0.644531Q14.3457-0.869141 14.2383-1.17188L9.6582-13.3691Q9.48242-13.8184 9.17969-14.043Q8.87695-14.2676 8.4082-14.2676Q7.5-14.2676 7.17773-13.3789L2.59766-1.16211Q2.49023-0.859375 2.49023-0.634766Q2.49023-0.263672 2.70996-0.0537109Q2.92969 0.15625 3.31055 0.15625ZM6.00586-5.51758L8.37891-12.0898L8.42773-12.0898L10.8008-5.51758Z"/>
  </g>
  <line style="fill:none;stroke:#00AEEF;stroke-width:0.5;opacity:1.0;" x1="793.197" x2="793.197" y1="1919" y2="1933"/>
  <text style="stroke:none;fill:black;font-family:sans-serif;font-size:13;font-weight:bold;" transform="matrix(1 0 0 1 776 1953)">Margins</text>
  <text style="stroke:none;fill:black;font-family:sans-serif;font-size:13;" transform="matrix(1 0 0 1 776 1971)">Leading and trailing margins on the left and right side of each symbol</text>
  <text style="stroke:none;fill:black;font-family:sans-serif;font-size:13;" transform="matrix(1 0 0 1 776 1989)">can be adjusted by modifying the x-location of the margin guidelines.</text>
  <text style="stroke:none;fill:black;font-family:sans-serif;font-size:13;" transform="matrix(1 0 0 1 776 2007)">Modifications are automatically applied proportionally to all</text>
  <text style="stroke:none;fill:black;font-family:sans-serif;font-size:13;" transform="matrix(1 0 0 1 776 2025)">scales and weights.</text>
  <g transform="matrix(1 0 0 1 1289 1933)">
   <path d="M2.8418 1.86523L4.54102 3.57422Q5.18555 4.22852 5.90332 4.17969Q6.62109 4.13086 7.31445 3.35938L18.0078-8.42773L17.041-9.4043L6.42578 2.27539Q6.16211 2.57812 5.89355 2.61719Q5.625 2.65625 5.27344 2.30469L4.10156 1.14258Q3.75 0.791016 3.79395 0.522461Q3.83789 0.253906 4.14062-0.0195312L15.6152-10.8203L14.6387-11.7871L3.04688-0.898438Q2.30469-0.214844 2.25098 0.498047Q2.19727 1.21094 2.8418 1.86523ZM9.25781-16.3281Q8.94531-16.0254 8.90625-15.6348Q8.86719-15.2441 9.04297-14.9512Q9.21875-14.6777 9.55566-14.541Q9.89258-14.4043 10.3809-14.5215Q11.4746-14.7754 12.5977-14.7314Q13.7207-14.6875 14.7949-13.9844L14.209-12.5293Q13.9551-11.9043 14.0674-11.4404Q14.1797-10.9766 14.5801-10.5664L16.875-8.25195Q17.2363-7.88086 17.5781-7.82227Q17.9199-7.76367 18.3398-7.8418L19.4043-8.03711L20.0684-7.36328L20.0293-6.80664Q20-6.43555 20.1221-6.12305Q20.2441-5.81055 20.6055-5.44922L21.3672-4.70703Q21.7285-4.3457 22.1533-4.33105Q22.5781-4.31641 22.9297-4.66797L25.8398-7.58789Q26.1914-7.93945 26.1816-8.35449Q26.1719-8.76953 25.8105-9.13086L25.0391-9.89258Q24.6875-10.2539 24.3799-10.3857Q24.0723-10.5176 23.7109-10.4883L23.1348-10.4395L22.4902-11.0742L22.7344-12.1973Q22.832-12.6172 22.6953-12.9834Q22.5586-13.3496 22.1191-13.7891L19.9219-15.9766Q18.6719-17.2168 17.2607-17.8369Q15.8496-18.457 14.4189-18.4814Q12.9883-18.5059 11.665-17.959Q10.3418-17.4121 9.25781-16.3281ZM10.752-15.957Q11.6602-16.6211 12.7002-16.9043Q13.7402-17.1875 14.8047-17.085Q15.8691-16.9824 16.8701-16.5137Q17.8711-16.0449 18.7012-15.2051L21.1328-12.793Q21.3086-12.6172 21.3525-12.4512Q21.3965-12.2852 21.3379-12.0312L21.0156-10.5469L22.5195-9.0625L23.5059-9.12109Q23.6914-9.13086 23.7891-9.09668Q23.8867-9.0625 24.0332-8.91602L24.6094-8.33984L22.168-5.89844L21.5918-6.47461Q21.4453-6.62109 21.4062-6.71875Q21.3672-6.81641 21.377-7.01172L21.4453-7.98828L19.9512-9.47266L18.4277-9.21875Q18.1836-9.16992 18.042-9.2041Q17.9004-9.23828 17.7148-9.41406L15.7129-11.416Q15.5176-11.5918 15.4932-11.7529Q15.4688-11.9141 15.5859-12.1875L16.4648-14.2773Q15.293-15.3711 13.8281-15.791Q12.3633-16.2109 10.8398-15.7617Q10.7227-15.7324 10.6885-15.8057Q10.6543-15.8789 10.752-15.957Z"/>
  </g>
  <text style="stroke:none;fill:black;font-family:sans-serif;font-size:13;font-weight:bold;" transform="matrix(1 0 0 1 1289 1953)">Exporting</text>
  <text style="stroke:none;fill:black;font-family:sans-serif;font-size:13;" transform="matrix(1 0 0 1 1289 1971)">Symbols should be outlined when exporting to ensure the</text>
  <text style="stroke:none;fill:black;font-family:sans-serif;font-size:13;" transform="matrix(1 0 0 1 1289 1989)">design is preserved when submitting to Xcode.</text>
  <text id="template-version" style="stroke:none;fill:black;font-family:sans-serif;font-size:13;text-anchor:end;" transform="matrix(1 0 0 1 3036 1933)">Template v.3.0</text>
  <text style="stroke:none;fill:black;font-family:sans-serif;font-size:13;text-anchor:end;" transform="matrix(1 0 0 1 3036 1951)">Requires Xcode 13 or greater</text>
  <text id="descriptive-name" style="stroke:none;fill:black;font-family:sans-serif;font-size:13;text-anchor:end;" transform="matrix(1 0 0 1 3036 1969)">Generated from photo.on.rectangle.angled</text>
  <text style="stroke:none;fill:black;font-family:sans-serif;font-size:13;text-anchor:end;" transform="matrix(1 0 0 1 3036 1987)">Typeset at 100 points</text>
  <text style="stroke:none;fill:black;font-family:sans-serif;font-size:13;" transform="matrix(1 0 0 1 263 726)">Small</text>
  <text style="stroke:none;fill:black;font-family:sans-serif;font-size:13;" transform="matrix(1 0 0 1 263 1156)">Medium</text>
  <text style="stroke:none;fill:black;font-family:sans-serif;font-size:13;" transform="matrix(1 0 0 1 263 1586)">Large</text>
 </g>
 <g id="Guides">
  <g id="H-reference" style="fill:#27AAE1;stroke:none;" transform="matrix(1 0 0 1 339 696)">
   <path d="M0.993347 0L3.6377 0L29.3282-67.1326L30.0301-67.1326L30.0301-70.459L28.1227-70.459ZM11.6882-24.4797L46.9818-24.4797L46.2311-26.7288L12.4382-26.7288ZM55.1193 0L57.7637 0L30.6381-70.459L29.4327-70.459L29.4327-67.1326Z"/>
  </g>
  <line id="Baseline-S" style="fill:none;stroke:#27AAE1;opacity:1;stroke-width:0.5;" x1="263" x2="3036" y1="696" y2="696"/>
  <line id="Capline-S" style="fill:none;stroke:#27AAE1;opacity:1;stroke-width:0.5;" x1="263" x2="3036" y1="625.541" y2="625.541"/>
  <g id="H-reference" style="fill:#27AAE1;stroke:none;" transform="matrix(1 0 0 1 339 1126)">
   <path d="M0.993347 0L3.6377 0L29.3282-67.1326L30.0301-67.1326L30.0301-70.459L28.1227-70.459ZM11.6882-24.4797L46.9818-24.4797L46.2311-26.7288L12.4382-26.7288ZM55.1193 0L57.7637 0L30.6381-70.459L29.4327-70.459L29.4327-67.1326Z"/>
  </g>
  <line id="Baseline-M" style="fill:none;stroke:#27AAE1;opacity:1;stroke-width:0.5;" x1="263" x2="3036" y1="1126" y2="1126"/>
  <line id="Capline-M" style="fill:none;stroke:#27AAE1;opacity:1;stroke-width:0.5;" x1="263" x2="3036" y1="1055.54" y2="1055.54"/>
  <g id="H-reference" style="fill:#27AAE1;stroke:none;" transform="matrix(1 0 0 1 339 1556)">
   <path d="M0.993347 0L3.6377 0L29.3282-67.1326L30.0301-67.1326L30.0301-70.459L28.1227-70.459ZM11.6882-24.4797L46.9818-24.4797L46.2311-26.7288L12.4382-26.7288ZM55.1193 0L57.7637 0L30.6381-70.459L29.4327-70.459L29.4327-67.1326Z"/>
  </g>
  <line id="Baseline-L" style="fill:none;stroke:#27AAE1;opacity:1;stroke-width:0.5;" x1="263" x2="3036" y1="1556" y2="1556"/>
  <line id="Capline-L" style="fill:none;stroke:#27AAE1;opacity:1;stroke-width:0.5;" x1="263" x2="3036" y1="1485.54" y2="1485.54"/>
  <line id="left-margin-Regular-M" style="fill:none;stroke:#00AEEF;stroke-width:0.5;opacity:1.0;" x1="1375.16" x2="1375.16" y1="1030.79" y2="1150.12"/>
  <line id="right-margin-Regular-M" style="fill:none;stroke:#00AEEF;stroke-width:0.5;opacity:1.0;" x1="1524.53" x2="1524.53" y1="1030.79" y2="1150.12"/>
 </g>
 <g id="Symbols">
  <g id="Black-L" transform="matrix(1 0 0 1 2831.18 1556)">
   <path class="hierarchical-0:secondary SFSymbolsPreview4D4D4D" d="M27.2949-7.08008Q29.2969 4.15039 36.4746 9.15527Q43.6523 14.1602 54.9316 12.207L66.7969 10.1562L66.7969-10.4004L54.1504-8.20312Q51.0254-7.66602 49.1699-8.88672Q47.3145-10.1074 46.6797-13.4277L37.0605-68.0664Q36.4258-71.4844 37.7686-73.2422Q39.1113-75 42.2852-75.5371L121.094-89.4043Q124.219-89.9902 126.074-88.7695Q127.93-87.5488 128.516-84.2285L131.201-69.1406L151.709-69.1406L147.949-90.5762Q145.947-101.758 138.745-106.787Q131.543-111.816 120.264-109.863L36.084-95.0195Q24.8047-93.0176 19.751-85.8154Q14.6973-78.6133 16.6504-67.3828Z"/>
   <path class="hierarchical-1:primary clearBehindLayer SFSymbolsPreview212121" d="M84.9121 26.3672L160.547 26.3672Q168.506 26.3672 172.363 22.3145Q176.221 18.2617 176.221 9.86328L176.221 8.10547L146.924-19.0918Q145.361-20.5566 143.481-21.2646Q141.602-21.9727 139.551-21.9727Q137.646-21.9727 135.767-21.2891Q133.887-20.6055 132.227-19.1406L109.57 0.878906L100.488-7.32422Q98.9746-8.69141 97.2412-9.35059Q95.5078-10.0098 93.75-10.0098Q92.0898-10.0098 90.4053-9.35059Q88.7207-8.69141 87.2559-7.42188L69.1895 8.88672Q69.1895 18.0664 72.9492 22.2168Q76.709 26.3672 84.9121 26.3672ZM106.543-17.9199Q110.059-17.9199 112.964-19.6777Q115.869-21.4355 117.603-24.3408Q119.336-27.2461 119.336-30.8105Q119.336-34.3262 117.603-37.2314Q115.869-40.1367 112.964-41.8701Q110.059-43.6035 106.543-43.6035Q102.979-43.6035 100.073-41.8701Q97.168-40.1367 95.4346-37.2314Q93.7012-34.3262 93.7012-30.8105Q93.7012-27.2461 95.4346-24.3408Q97.168-21.4355 100.073-19.6777Q102.979-17.9199 106.543-17.9199ZM78.9062 35.5957L164.404 35.5957Q175.83 35.5957 182.08 29.3945Q188.33 23.1934 188.33 11.8164L188.33-49.4629Q188.33-60.8398 182.08-67.041Q175.83-73.2422 164.404-73.2422L78.9062-73.2422Q67.4805-73.2422 61.2305-67.041Q54.9805-60.8398 54.9805-49.4629L54.9805 11.8164Q54.9805 23.1934 61.2305 29.3945Q67.4805 35.5957 78.9062 35.5957ZM81.6406 15.3809Q78.4668 15.3809 76.8555 13.8672Q75.2441 12.3535 75.2441 8.93555L75.2441-46.582Q75.2441-50 76.8555-51.5137Q78.4668-53.0273 81.6406-53.0273L161.67-53.0273Q164.844-53.0273 166.455-51.5137Q168.066-50 168.066-46.582L168.066 8.93555Q168.066 12.3535 166.455 13.8672Q164.844 15.3809 161.67 15.3809Z"/>
  </g>
  <g id="Heavy-L" transform="matrix(1 0 0 1 2536.05 1556)">
   <path class="hierarchical-0:secondary SFSymbolsPreview4D4D4D" d="M27.2255-6.98776Q29.1359 3.75824 35.9158 8.48083Q42.6956 13.2034 53.5255 11.3312L64.1464 9.49936L64.1464-8.28018L52.6062-6.27823Q49.0433-5.66101 46.8822-7.10068Q44.7212-8.54034 44.0178-12.2986L34.2598-67.7094Q33.5564-71.5538 35.1006-73.6343Q36.6447-75.7149 40.2565-76.3321L120.322-90.4182Q123.873-91.0622 126.04-89.6282Q128.207-88.1943 128.873-84.4246L131.697-68.5989L149.427-68.5989L145.714-89.7346Q143.792-100.444 136.988-105.197Q130.183-109.949 119.365-108.066L35.1273-93.2098Q24.3088-91.2888 19.532-84.4959Q14.7552-77.7031 16.6389-66.9449Z"/>
   <path class="hierarchical-1:primary clearBehindLayer SFSymbolsPreview212121" d="M81.1783 25.9178L159.199 25.9178Q167.146 25.9178 171.061 21.8765Q174.976 17.8352 174.976 9.54056L174.976 7.16019L145.748-20.0485Q144.106-21.582 142.145-22.3362Q140.184-23.0904 138.052-23.0904Q136.021-23.0904 134.09-22.3663Q132.158-21.6423 130.405-20.0974L107.069 0.498962L97.7684-7.92313Q96.1739-9.35974 94.4004-10.0536Q92.627-10.7475 90.7883-10.7475Q89.0701-10.7475 87.3627-10.0536Q85.6552-9.35974 84.0981-8.00934L65.3519 8.80585Q65.3519 17.6865 69.1921 21.8021Q73.0324 25.9178 81.1783 25.9178ZM103.754-18.8652Q107.304-18.8652 110.244-20.6402Q113.184-22.4152 114.935-25.3609Q116.685-28.3066 116.685-31.9054Q116.685-35.4553 114.935-38.3953Q113.184-41.3353 110.244-43.0916Q107.304-44.8479 103.754-44.8479Q100.155-44.8479 97.2153-43.0916Q94.2757-41.3353 92.5304-38.3953Q90.7852-35.4553 90.7852-31.9054Q90.7852-28.3066 92.5304-25.3609Q94.2757-22.4152 97.2153-20.6402Q100.155-18.8652 103.754-18.8652ZM76.5671 33.6823L162.411 33.6823Q173.363 33.6823 179.268 27.8271Q185.172 21.9719 185.172 11.0786L185.172-49.8428Q185.172-60.7361 179.268-66.5916Q173.363-72.4472 162.411-72.4472L76.5671-72.4472Q65.6021-72.4472 59.7034-66.5916Q53.8048-60.7361 53.8048-49.8428L53.8048 11.0786Q53.8048 21.9833 59.7034 27.8328Q65.6021 33.6823 76.5671 33.6823ZM78.6903 16.1987Q75.0671 16.1987 73.1964 14.4085Q71.3257 12.6183 71.3257 8.77457L71.3257-47.5273Q71.3257-51.3832 73.1964-53.1734Q75.0671-54.9637 78.6903-54.9637L160.287-54.9637Q163.887-54.9637 165.769-53.1734Q167.651-51.3832 167.651-47.5273L167.651 8.77457Q167.651 12.6183 165.769 14.4085Q163.887 16.1987 160.287 16.1987Z"/>
  </g>
  <g id="Bold-L" transform="matrix(1 0 0 1 2241.1 1556)">
   <path class="hierarchical-0:secondary SFSymbolsPreview4D4D4D" d="M27.1484-6.88477Q28.9551 3.32031 35.2905 7.72705Q41.626 12.1338 51.9531 10.3516L61.1816 8.76465L61.1816-5.9082L50.8789-4.12598Q46.8262-3.41797 44.3237-5.10254Q41.8213-6.78711 41.04-11.0352L31.1279-67.3096Q30.3467-71.6309 32.1167-74.0723Q33.8867-76.5137 37.9883-77.2217L119.458-91.5527Q123.486-92.2607 126.001-90.5884Q128.516-88.916 129.272-84.6436L132.251-67.9932L146.875-67.9932L143.213-88.7939Q141.382-98.9746 135.022-103.418Q128.662-107.861 118.359-106.055L34.0576-91.1865Q23.7549-89.3555 19.2871-83.02Q14.8193-76.6846 16.626-66.4551Z"/>
   <path class="hierarchical-1:primary clearBehindLayer SFSymbolsPreview212121" d="M77.002 25.415L157.69 25.415Q165.625 25.415 169.604 21.3867Q173.584 17.3584 173.584 9.17969L173.584 6.10352L144.434-21.1182Q142.7-22.7295 140.649-23.5352Q138.599-24.3408 136.377-24.3408Q134.204-24.3408 132.214-23.5718Q130.225-22.8027 128.369-21.167L104.272 0.0732422L94.7266-8.59375Q93.042-10.1074 91.2231-10.8398Q89.4043-11.5723 87.4756-11.5723Q85.6934-11.5723 83.96-10.8398Q82.2266-10.1074 80.5664-8.66699L61.0596 8.71582Q61.0596 17.2607 64.9902 21.3379Q68.9209 25.415 77.002 25.415ZM100.635-19.9219Q104.224-19.9219 107.202-21.7163Q110.181-23.5107 111.951-26.5015Q113.721-29.4922 113.721-33.1299Q113.721-36.7188 111.951-39.6973Q110.181-42.6758 107.202-44.458Q104.224-46.2402 100.635-46.2402Q96.9971-46.2402 94.0186-44.458Q91.04-42.6758 89.2822-39.6973Q87.5244-36.7188 87.5244-33.1299Q87.5244-29.4922 89.2822-26.5015Q91.04-23.5107 94.0186-21.7163Q96.9971-19.9219 100.635-19.9219ZM73.9502 31.543L160.181 31.543Q170.605 31.543 176.123 26.0742Q181.641 20.6055 181.641 10.2539L181.641-50.2686Q181.641-60.6201 176.123-66.0889Q170.605-71.5576 160.181-71.5576L73.9502-71.5576Q63.501-71.5576 57.9956-66.0889Q52.4902-60.6201 52.4902-50.2686L52.4902 10.2539Q52.4902 20.6299 57.9956 26.0864Q63.501 31.543 73.9502 31.543ZM75.3906 17.1143Q71.2646 17.1143 69.104 15.0146Q66.9434 12.915 66.9434 8.59375L66.9434-48.584Q66.9434-52.9297 69.104-55.0293Q71.2646-57.1289 75.3906-57.1289L158.74-57.1289Q162.817-57.1289 165.002-55.0293Q167.188-52.9297 167.188-48.584L167.188 8.59375Q167.188 12.915 165.002 15.0146Q162.817 17.1143 158.74 17.1143Z"/>
  </g>
  <g id="Semibold-L" transform="matrix(1 0 0 1 1945.61 1556)">
   <path class="hierarchical-0:secondary SFSymbolsPreview4D4D4D" d="M27.095-6.81381Q28.8307 3.01819 34.8595 7.20711Q40.8882 11.396 50.869 9.67636L59.1377 8.25806L59.1377-4.27322L49.688-2.64206Q45.2972-1.87149 42.5594-3.72505Q39.8216-5.57861 38.987-10.1639L28.968-67.0341Q28.1342-71.6843 30.0594-74.3744Q31.9847-77.0645 36.4243-77.8351L118.863-92.3347Q123.22-93.087 125.975-91.2502Q128.729-89.4135 129.548-84.7946L132.633-67.5758L145.116-67.5758L141.489-88.1454Q139.72-97.9614 133.667-102.192Q127.613-106.422 117.666-104.668L33.3199-89.7911Q23.3727-88.0226 19.1181-82.0026Q14.8636-75.9827 16.6168-66.1171Z"/>
   <path class="hierarchical-1:primary clearBehindLayer SFSymbolsPreview212121" d="M74.1226 25.0687L156.651 25.0687Q164.576 25.0687 168.6 21.0491Q172.624 17.0296 172.624 8.93097L172.624 5.37491L143.527-21.8559Q141.731-23.5207 139.618-24.3618Q137.505-25.2029 135.222-25.2029Q132.951-25.2029 130.922-24.4026Q128.892-23.6023 126.965-21.9048L102.344-0.219727L92.6292-9.05609Q90.8821-10.6232 89.0324-11.3823Q87.1826-12.1414 85.1913-12.1414Q83.3649-12.1414 81.6139-11.3823Q79.863-10.6232 78.1311-9.12018L58.1001 8.65326Q58.1001 16.9678 62.093 21.0182Q66.0858 25.0687 74.1226 25.0687ZM98.484-20.6505Q102.1-20.6505 105.105-22.4583Q108.11-24.2661 109.893-27.2881Q111.677-30.3101 111.677-33.9745Q111.677-37.59 109.893-40.5949Q108.11-43.5997 105.105-45.3999Q102.1-47.2 98.484-47.2Q94.8196-47.2 91.8144-45.3999Q88.8092-43.5997 87.0426-40.5949Q85.276-37.59 85.276-33.9745Q85.276-30.3101 87.0426-27.2881Q88.8092-24.2661 91.8144-22.4583Q94.8196-20.6505 98.484-20.6505ZM72.1458 30.0674L158.643 30.0674Q168.703 30.0674 173.954 24.8653Q179.205 19.6632 179.205 9.68552L179.205-50.5615Q179.205-60.54 173.954-65.7421Q168.703-70.9442 158.643-70.9442L72.1458-70.9442Q62.0522-70.9442 56.818-65.7421Q51.5839-60.54 51.5839-50.5615L51.5839 9.68552Q51.5839 19.6968 56.818 24.8821Q62.0522 30.0674 72.1458 30.0674ZM73.1155 17.7452Q68.6432 17.7452 66.2827 15.4324Q63.9221 13.1195 63.9221 8.46939L63.9221-49.3126Q63.9221-53.9963 66.2827-56.3091Q68.6432-58.622 73.1155-58.622L157.674-58.622Q162.08-58.622 164.474-56.3091Q166.868-53.9963 166.868-49.3126L166.868 8.46939Q166.868 13.1195 164.474 15.4324Q162.08 17.7452 157.674 17.7452Z"/>
  </g>
  <g id="Medium-L" transform="matrix(1 0 0 1 1649.82 1556)">
   <path class="hierarchical-0:secondary SFSymbolsPreview4D4D4D" d="M27.0546-6.75964Q28.7361 2.78931 34.5325 6.81305Q40.329 10.8368 50.0465 9.16367L57.5874 7.8743L57.5874-3.03345L48.7854-1.51672Q44.1383-0.698853 41.222-2.68059Q38.3057-4.66232 37.4306-9.50394L27.3308-66.8251Q26.4557-71.7247 28.4992-74.6037Q30.5428-77.4826 35.2379-78.2997L118.411-92.9276Q123.018-93.7141 125.954-91.7526Q128.891-89.7911 129.757-84.9091L132.923-67.2585L143.781-67.2585L140.182-87.6534Q138.46-97.1931 132.639-101.262Q126.818-105.33 117.141-103.617L32.7606-88.7337Q23.0827-87.0117 18.9899-81.2309Q14.8972-75.4501 16.6107-65.8615Z"/>
   <path class="hierarchical-1:primary clearBehindLayer SFSymbolsPreview212121" d="M71.9391 24.8055L155.862 24.8055Q163.781 24.8055 167.839 20.7928Q171.896 16.7801 171.896 8.74252L171.896 4.82254L142.84-22.4152Q140.997-24.1203 138.837-24.9886Q136.677-25.8568 134.346-25.8568Q132.001-25.8568 129.941-25.0328Q127.881-24.2088 125.9-22.464L100.882-0.442505L91.0393-9.40628Q89.2448-11.0138 87.3714-11.7931Q85.498-12.5725 83.4602-12.5725Q81.5994-12.5725 79.8347-11.7931Q78.0701-11.0138 76.2848-9.46426L55.8563 8.60672Q55.8563 16.745 59.8965 20.7752Q63.9366 24.8055 71.9391 24.8055ZM96.8536-21.2029Q100.489-21.2029 103.514-23.0209Q106.54-24.839 108.334-27.8843Q110.127-30.9296 110.127-34.6146Q110.127-38.25 108.334-41.2754Q106.54-44.3008 103.514-46.1143Q100.489-47.9279 96.8536-47.9279Q93.1686-47.9279 90.1432-46.1143Q87.1178-44.3008 85.3443-41.2754Q83.5709-38.25 83.5709-34.6146Q83.5709-30.9296 85.3443-27.8843Q87.1178-24.839 90.1432-23.0209Q93.1686-21.2029 96.8536-21.2029ZM70.7779 28.949L157.478 28.949Q167.262 28.949 172.31 23.9491Q177.359 18.9491 177.359 9.25369L177.359-50.7843Q177.359-60.4797 172.31-65.4797Q167.262-70.4796 157.478-70.4796L70.7779-70.4796Q60.9543-70.4796 55.9254-65.4797Q50.8965-60.4797 50.8965-50.7843L50.8965 9.25369Q50.8965 18.9896 55.9254 23.9693Q60.9543 28.949 70.7779 28.949ZM71.3905 18.2236Q66.655 18.2236 64.143 15.749Q61.631 13.2744 61.631 8.37479L61.631-49.865Q61.631-54.805 64.143-57.2796Q66.655-59.7542 71.3905-59.7542L156.865-59.7542Q161.52-59.7542 164.073-57.2796Q166.625-54.805 166.625-49.865L166.625 8.37479Q166.625 13.2744 164.073 15.749Q161.52 18.2236 156.865 18.2236Z"/>
  </g>
  <g id="Regular-L" transform="matrix(1 0 0 1 1354.31 1556)">
   <path class="hierarchical-0:secondary SFSymbolsPreview4D4D4D" d="M27.002-6.68945Q28.6133 2.49023 34.1064 6.29883Q39.5996 10.1074 48.9746 8.49609L55.5664 7.37305L55.5664-1.41602L47.6074-0.0488281Q42.627 0.830078 39.4775-1.31836Q36.3281-3.4668 35.4004-8.64258L25.1953-66.5527Q24.2676-71.7773 26.4648-74.9023Q28.6621-78.0273 33.6914-78.9062L117.822-93.7012Q122.754-94.5312 125.928-92.4072Q129.102-90.2832 130.029-85.0586L133.301-66.8457L142.041-66.8457L138.477-87.0117Q136.816-96.1914 131.299-100.049Q125.781-103.906 116.455-102.246L32.0312-87.3535Q22.7051-85.6934 18.8232-80.2246Q14.9414-74.7559 16.6016-65.5273Z"/>
   <path class="hierarchical-1:primary clearBehindLayer SFSymbolsPreview212121" d="M69.0918 24.4629L154.834 24.4629Q162.744 24.4629 166.846 20.459Q170.947 16.4551 170.947 8.49609L170.947 4.10156L141.943-23.1445Q140.039-24.9023 137.817-25.8057Q135.596-26.709 133.203-26.709Q130.762-26.709 128.662-25.8545Q126.562-25 124.512-23.1934L98.9746-0.732422L88.9648-9.86328Q87.1094-11.5234 85.2051-12.3291Q83.3008-13.1348 81.2012-13.1348Q79.2969-13.1348 77.5146-12.3291Q75.7324-11.5234 73.877-9.91211L52.9297 8.54492Q52.9297 16.4551 57.0312 20.459Q61.1328 24.4629 69.0918 24.4629ZM94.7266-21.9238Q98.3887-21.9238 101.44-23.7549Q104.492-25.5859 106.299-28.6621Q108.105-31.7383 108.105-35.4492Q108.105-39.1113 106.299-42.1631Q104.492-45.2148 101.44-47.0459Q98.3887-48.877 94.7266-48.877Q91.0156-48.877 87.9639-47.0459Q84.9121-45.2148 83.1299-42.1631Q81.3477-39.1113 81.3477-35.4492Q81.3477-31.7383 83.1299-28.6621Q84.9121-25.5859 87.9639-23.7549Q91.0156-21.9238 94.7266-21.9238ZM68.9941 27.4902L155.957 27.4902Q165.381 27.4902 170.166 22.7539Q174.951 18.0176 174.951 8.69141L174.951-51.0742Q174.951-60.4004 170.166-65.1367Q165.381-69.873 155.957-69.873L68.9941-69.873Q59.5215-69.873 54.7607-65.1367Q50-60.4004 50-51.0742L50 8.69141Q50 18.0664 54.7607 22.7783Q59.5215 27.4902 68.9941 27.4902ZM69.1406 18.8477Q64.0625 18.8477 61.3525 16.1621Q58.6426 13.4766 58.6426 8.25195L58.6426-50.5859Q58.6426-55.8594 61.3525-58.5449Q64.0625-61.2305 69.1406-61.2305L155.811-61.2305Q160.791-61.2305 163.55-58.5449Q166.309-55.8594 166.309-50.5859L166.309 8.25195Q166.309 13.4766 163.55 16.1621Q160.791 18.8477 155.811 18.8477Z"/>
  </g>
  <g id="Light-L" transform="matrix(1 0 0 1 1058.82 1556)">
   <path class="hierarchical-0:secondary SFSymbolsPreview4D4D4D" d="M27.002-6.15997Q28.5378 2.52075 33.7658 6.16264Q38.9938 9.80453 47.7936 8.284L52.7664 7.43332L52.7664 0.688171L46.7903 1.72195Q41.2796 2.70691 37.8654 0.354004Q34.4513-1.9989 33.4328-7.65839L23.1064-66.1896Q22.1031-71.8834 24.4972-75.2731Q26.8913-78.6629 32.4196-79.6478L117.035-94.5335Q122.421-95.4544 125.898-93.1412Q129.374-90.8279 130.392-85.1189L133.649-67.0425L140.315-67.0425L136.857-86.6028Q135.287-95.2682 130.042-98.9513Q124.797-102.634 116.031-101.08L31.1234-86.097Q22.3419-84.5428 18.6718-79.324Q15.0017-74.1051 16.5558-65.406Z"/>
   <path class="hierarchical-1:primary clearBehindLayer SFSymbolsPreview212121" d="M66.2918 23.3879L153.956 23.3879Q161.472 23.3879 165.309 19.6114Q169.146 15.8348 169.146 8.284L169.146 3.35999L140.369-23.3864Q138.374-25.2052 136.13-26.1616Q133.885-27.1179 131.357-27.1179Q128.809-27.1179 126.702-26.2028Q124.595-25.2876 122.453-23.4352L96.7796-1.05057L86.8759-10.1357Q85.0204-11.8263 83.139-12.6621Q81.2576-13.4979 79.0672-13.4979Q77.0416-13.4979 75.2819-12.677Q73.5222-11.8561 71.6522-10.1845L51.0529 8.28781Q51.0529 15.8195 54.8893 19.6037Q58.7257 23.3879 66.2918 23.3879ZM92.9253-22.3778Q96.6179-22.3778 99.6773-24.2165Q102.737-26.0551 104.558-29.1542Q106.38-32.2533 106.38-35.9787Q106.38-39.6561 104.558-42.7307Q102.737-45.8054 99.6773-47.6513Q96.6179-49.4972 92.9253-49.4972Q89.1838-49.4972 86.1172-47.6513Q83.0505-45.8054 81.2607-42.7307Q79.4708-39.6561 79.4708-35.9787Q79.4708-32.2533 81.2607-29.1542Q83.0505-26.0551 86.1172-24.2165Q89.1838-22.3778 92.9253-22.3778ZM66.3757 26.0368L154.565 26.0368Q163.444 26.0368 167.987 21.4973Q172.53 16.9579 172.53 8.19168L172.53-51.9974Q172.53-60.7635 167.987-65.2954Q163.444-69.8273 154.565-69.8273L66.3757-69.8273Q57.4631-69.8273 52.9369-65.3183Q48.4108-60.8093 48.4108-51.9974L48.4108 8.19168Q48.4108 17.0372 52.9369 21.537Q57.4631 26.0368 66.3757 26.0368ZM66.5222 19.4229Q60.9138 19.4229 57.9693 16.4951Q55.0247 13.5674 55.0247 7.85828L55.0247-51.6304Q55.0247-57.3578 57.9693-60.2932Q60.9138-63.2286 66.5222-63.2286L154.418-63.2286Q159.868-63.2286 162.891-60.2932Q165.915-57.3578 165.915-51.6304L165.915 7.85828Q165.915 13.5674 162.891 16.4951Q159.868 19.4229 154.418 19.4229Z"/>
  </g>
  <g id="Thin-L" transform="matrix(1 0 0 1 763.72 1556)">
   <path class="hierarchical-0:secondary SFSymbolsPreview4D4D4D" d="M27.002-5.45883Q28.4378 2.56042 33.3157 5.98221Q38.1935 9.40399 46.2326 8.004L49.0631 7.51343L49.0631 3.47061L45.7092 4.06418Q39.4981 5.18951 35.7334 2.56653Q31.9687-0.0564575 30.8304-6.35757L20.3438-65.7089Q19.2406-72.0238 21.8948-75.7637Q24.5491-79.5036 30.7381-80.629L115.994-95.6345Q121.98-96.6759 125.857-94.1124Q129.734-91.5489 130.873-85.199L134.109-67.3027L138.033-67.3027L134.715-86.0626Q133.266-94.0468 128.381-97.4998Q123.496-100.953 115.471-99.5392L29.9217-84.436Q21.8613-83.0215 18.4715-78.133Q15.0818-73.2445 16.4963-65.2458Z"/>
   <path class="hierarchical-1:primary clearBehindLayer SFSymbolsPreview212121" d="M62.5885 21.9666L152.795 21.9666Q159.791 21.9666 163.277 18.4902Q166.764 15.0139 166.764 8.004L166.764 2.37885L138.287-23.7068Q136.172-25.6058 133.897-26.6319Q131.623-27.6581 128.914-27.6581Q126.227-27.6581 124.11-26.6628Q121.992-25.6676 119.73-23.7556L93.8774-1.47095L84.1133-10.4958Q82.2578-12.2269 80.4062-13.1027Q78.5545-13.9786 76.2444-13.9786Q74.0585-13.9786 72.3293-13.1378Q70.6001-12.2971 68.7096-10.5446L48.5703 7.94754Q48.5703 14.9788 52.0569 18.4727Q55.5435 21.9666 62.5885 21.9666ZM90.5434-22.9782Q94.2757-22.9782 97.345-24.8268Q100.414-26.6754 102.256-29.8046Q104.098-32.9338 104.098-36.6798Q104.098-40.377 102.256-43.4814Q100.414-46.5858 97.345-48.452Q94.2757-50.3181 90.5434-50.3181Q86.7622-50.3181 83.675-48.452Q80.5878-46.5858 78.788-43.4814Q76.9882-40.377 76.9882-36.6798Q76.9882-32.9338 78.788-29.8046Q80.5878-26.6754 83.675-24.8268Q86.7622-22.9782 90.5434-22.9782ZM62.912 24.1158L152.723 24.1158Q160.881 24.1158 165.104 19.8364Q169.327 15.5571 169.327 7.53098L169.327-53.2188Q169.327-61.2442 165.104-65.506Q160.881-69.7678 152.723-69.7678L62.912-69.7678Q54.7401-69.7678 50.5245-65.5586Q46.3089-61.3495 46.3089-53.2188L46.3089 7.53098Q46.3089 15.6761 50.5245 19.8959Q54.7401 24.1158 62.912 24.1158ZM63.0585 20.1836Q56.7505 20.1836 53.4954 16.9353Q50.2403 13.6871 50.2403 7.33795L50.2403-53.0113Q50.2403-59.3399 53.4954-62.6053Q56.7505-65.8707 63.0585-65.8707L152.576-65.8707Q158.646-65.8707 162.02-62.6053Q165.395-59.3399 165.395-53.0113L165.395 7.33795Q165.395 13.6871 162.02 16.9353Q158.646 20.1836 152.576 20.1836Z"/>
  </g>
  <g id="Ultralight-L" transform="matrix(1 0 0 1 467.834 1556)">
   <path class="hierarchical-0:secondary SFSymbolsPreview4D4D4D" d="M27.002-5.10025Q28.3859 2.58102 33.0845 5.89027Q37.7831 9.19952 45.4323 7.86057L47.1657 7.55463L47.1657 4.89578L45.1553 5.26428Q38.5857 6.46057 34.6416 3.69911Q30.6976 0.937653 29.4968-5.69077L18.9285-65.4633Q17.7742-72.0955 20.5616-76.0151Q23.349-79.9347 29.8767-81.131L115.461-96.199Q121.755-97.3015 125.837-94.6098Q129.919-91.9182 131.119-85.2402L134.345-67.4362L136.864-67.4362L133.617-85.7857Q132.23-93.4212 127.53-96.7564Q122.829-100.092 115.183-98.7495L29.3068-83.5846Q21.6156-82.2426 18.3693-77.523Q15.123-72.8035 16.465-65.1642Z"/>
   <path class="hierarchical-1:primary clearBehindLayer SFSymbolsPreview212121" d="M60.6911 21.2387L152.2 21.2387Q158.929 21.2387 162.236 17.9161Q165.543 14.5935 165.543 7.86057L165.543 1.87683L137.221-23.8708Q135.044-25.8102 132.754-26.8726Q130.464-27.935 127.663-27.935Q124.904-27.935 122.781-26.899Q120.659-25.8629 118.336-23.9197L92.3904-1.6861L82.6981-10.6804Q80.8426-12.4313 79.0066-13.3278Q77.1706-14.2242 74.7986-14.2242Q72.5311-14.2242 70.8168-13.3732Q69.1025-12.5221 67.202-10.7292L47.2992 7.77283Q47.2992 14.5477 50.6058 17.8932Q53.9124 21.2387 60.6911 21.2387ZM89.3227-23.2864Q93.0756-23.2864 96.1502-25.14Q99.2249-26.9936 101.077-30.138Q102.929-33.2825 102.929-37.0384Q102.929-40.7463 101.077-43.866Q99.2249-46.9856 96.1502-48.8621Q93.0756-50.7385 89.3227-50.7385Q85.5209-50.7385 82.4238-48.8621Q79.3266-46.9856 77.5219-43.866Q75.7172-40.7463 75.7172-37.0384Q75.7172-33.2825 77.5219-30.138Q79.3266-26.9936 82.4238-25.14Q85.5209-23.2864 89.3227-23.2864ZM61.1382 23.1308L151.779 23.1308Q159.569 23.1308 163.627 18.985Q167.686 14.8392 167.686 7.19299L167.686-53.8445Q167.686-61.4899 163.627-65.6132Q159.569-69.7365 151.779-69.7365L61.1382-69.7365Q53.3455-69.7365 49.2886-65.6815Q45.2316-61.6264 45.2316-53.8445L45.2316 7.19299Q45.2316 14.9788 49.2886 19.0548Q53.3455 23.1308 61.1382 23.1308ZM61.2846 20.5734Q54.6173 20.5734 51.2035 17.1612Q47.7898 13.7489 47.7898 7.07092L47.7898-53.7193Q47.7898-60.3546 51.2035-63.7897Q54.6173-67.2249 61.2846-67.2249L151.633-67.2249Q158.021-67.2249 161.575-63.7897Q165.128-60.3546 165.128-53.7193L165.128 7.07092Q165.128 13.7489 161.575 17.1612Q158.021 20.5734 151.633 20.5734Z"/>
  </g>
  <g id="Black-M" transform="matrix(1 0 0 1 2853.27 1126)">
   <path class="hierarchical-0:secondary SFSymbolsPreview4D4D4D" d="M21.1914-13.3301Q22.7539-4.39453 28.5889-0.317383Q34.4238 3.75977 43.3594 2.19727L53.0273 0.488281L53.0273-17.0898L42.9688-15.332Q40.7715-14.9414 39.502-15.7715Q38.2324-16.6016 37.793-18.9453L30.3711-60.8398Q29.9316-63.2812 30.8594-64.4775Q31.7871-65.6738 34.0332-66.0645L94.2383-76.6602Q96.4355-77.0508 97.7051-76.2451Q98.9746-75.4395 99.4141-73.0469L101.318-62.0117L118.896-62.0117L115.967-78.7109Q114.404-87.5977 108.569-91.6992Q102.734-95.8008 93.7988-94.1895L28.418-82.666Q19.4824-81.1035 15.3809-75.2441Q11.2793-69.3848 12.8906-60.498Z"/>
   <path class="hierarchical-1:primary clearBehindLayer SFSymbolsPreview212121" d="M68.0176 12.5488L125.244 12.5488Q131.299 12.5488 134.155 9.47266Q137.012 6.39648 137.012-0.0976562L137.012-1.12305L114.307-22.0215Q113.135-23.0957 111.743-23.6328Q110.352-24.1699 108.789-24.1699Q107.373-24.1699 105.957-23.6328Q104.541-23.0957 103.32-22.0215L86.2793-6.98242L79.4434-13.1836Q78.3691-14.209 77.0752-14.6973Q75.7812-15.1855 74.4629-15.1855Q73.1934-15.1855 71.8994-14.6973Q70.6055-14.209 69.5312-13.2812L56.25-1.02539Q56.25 6.20117 59.0088 9.375Q61.7676 12.5488 68.0176 12.5488ZM84.3262-21.1426Q88.3789-21.1426 91.2598-24.0479Q94.1406-26.9531 94.1406-31.0547Q94.1406-33.7402 92.7979-35.9619Q91.4551-38.1836 89.2334-39.5264Q87.0117-40.8691 84.3262-40.8691Q80.2246-40.8691 77.3193-37.9883Q74.4141-35.1074 74.4141-31.0547Q74.4141-26.9531 77.3193-24.0479Q80.2246-21.1426 84.3262-21.1426ZM62.2559 20.8008L128.613 20.8008Q137.695 20.8008 142.749 15.7715Q147.803 10.7422 147.803 1.66016L147.803-46.2402Q147.803-55.2734 142.749-60.3271Q137.695-65.3809 128.613-65.3809L62.2559-65.3809Q53.1738-65.3809 48.1201-60.3271Q43.0664-55.2734 43.0664-46.2402L43.0664 1.66016Q43.0664 10.7422 48.1201 15.7715Q53.1738 20.8008 62.2559 20.8008ZM64.8926 3.4668Q62.6465 3.4668 61.5234 2.46582Q60.4004 1.46484 60.4004-0.976562L60.4004-43.5547Q60.4004-45.9961 61.5234-47.0215Q62.6465-48.0469 64.8926-48.0469L125.977-48.0469Q128.223-48.0469 129.346-47.0215Q130.469-45.9961 130.469-43.5547L130.469-0.976562Q130.469 1.46484 129.346 2.46582Q128.223 3.4668 125.977 3.4668Z"/>
  </g>
  <g id="Heavy-M" transform="matrix(1 0 0 1 2557.85 1126)">
   <path class="hierarchical-0:secondary SFSymbolsPreview4D4D4D" d="M21.1105-13.353Q22.6273-4.77448 28.1223-0.93956Q33.6174 2.89536 42.2302 1.39084L51.0452-0.157166L51.0452-15.4648L41.6435-13.8336Q39.1121-13.3858 37.606-14.3887Q36.1-15.3915 35.6033-18.058L28.0777-60.5751Q27.5803-63.327 28.6694-64.777Q29.7585-66.227 32.3273-66.6756L93.6394-77.4666Q96.1586-77.9037 97.6704-76.9253Q99.1821-75.9468 99.6788-73.2315L101.733-61.4471L117.041-61.4471L114.123-77.9732Q112.618-86.5143 107.117-90.374Q101.617-94.2337 93.0153-92.691L27.6802-81.179Q19.0788-79.6631 15.2081-74.1493Q11.3373-68.6356 12.8792-60.0945Z"/>
   <path class="hierarchical-1:primary clearBehindLayer SFSymbolsPreview212121" d="M64.9635 12.3299L124.115 12.3299Q130.238 12.3299 133.204 9.21898Q136.17 6.10809 136.17-0.362396L136.17-1.8837L113.489-22.8973Q112.259-24.0295 110.793-24.5953Q109.326-25.161 107.706-25.161Q106.197-25.161 104.735-24.6067Q103.273-24.0524 101.972-22.9088L84.2972-7.2937L77.2308-13.7024Q76.0757-14.7964 74.7356-15.308Q73.3955-15.8195 72.02-15.8195Q70.7153-15.8195 69.3985-15.3023Q68.0817-14.785 66.9266-13.8L52.8961-1.05972Q52.8961 5.95932 55.7877 9.14459Q58.6792 12.3299 64.9635 12.3299ZM81.9748-21.9727Q86.0855-21.9727 89.0011-24.918Q91.9167-27.8633 91.9167-32.0114Q91.9167-34.7198 90.5621-36.9762Q89.2075-39.2326 86.9572-40.5926Q84.7069-41.9525 81.9748-41.9525Q77.8389-41.9525 74.905-39.0255Q71.9711-36.0985 71.9711-32.0114Q71.9711-27.8633 74.905-24.918Q77.8389-21.9727 81.9748-21.9727ZM60.527 19.2451L126.965 19.2451Q135.702 19.2451 140.467 14.5096Q145.232 9.77402 145.232 1.04904L145.232-46.4134Q145.232-55.0888 140.467-59.8488Q135.702-64.6088 126.965-64.6088L60.527-64.6088Q51.7677-64.6088 47.0081-59.8545Q42.2485-55.1003 42.2485-46.4134L42.2485 1.04904Q42.2485 9.77402 47.0081 14.5096Q51.7677 19.2451 60.527 19.2451ZM62.5648 4.14658Q59.9846 4.14658 58.6655 2.92664Q57.3463 1.7067 57.3463-1.05743L57.3463-44.2574Q57.3463-47.0215 58.6655-48.2658Q59.9846-49.5102 62.5648-49.5102L124.916-49.5102Q127.485-49.5102 128.81-48.2658Q130.135-47.0215 130.135-44.2574L130.135-1.05743Q130.135 1.7067 128.81 2.92664Q127.485 4.14658 124.916 4.14658Z"/>
  </g>
  <g id="Bold-M" transform="matrix(1 0 0 1 2262.57 1126)">
   <path class="hierarchical-0:secondary SFSymbolsPreview4D4D4D" d="M21.0205-13.3789Q22.4854-5.2002 27.6001-1.63574Q32.7148 1.92871 40.9668 0.488281L48.8281-0.878906L48.8281-13.6475L40.1611-12.1582Q37.2559-11.6455 35.4858-12.8418Q33.7158-14.0381 33.1543-17.0654L25.5127-60.2783Q24.9512-63.3789 26.2207-65.1123Q27.4902-66.8457 30.4199-67.3584L92.9688-78.3691Q95.8496-78.8574 97.6318-77.6855Q99.4141-76.5137 99.9756-73.4375L102.197-60.8154L114.966-60.8154L112.061-77.1484Q110.62-85.3027 105.493-88.8916Q100.366-92.4805 92.1387-91.0156L26.8555-79.5166Q18.6279-78.0518 15.0146-72.9248Q11.4014-67.7979 12.8662-59.6436Z"/>
   <path class="hierarchical-1:primary clearBehindLayer SFSymbolsPreview212121" d="M61.5479 12.085L122.852 12.085Q129.053 12.085 132.141 8.93555Q135.229 5.78613 135.229-0.65918L135.229-2.73438L112.573-23.877Q111.279-25.0732 109.729-25.6714Q108.179-26.2695 106.494-26.2695Q104.883-26.2695 103.369-25.6958Q101.855-25.1221 100.464-23.9014L82.0801-7.6416L74.7559-14.2822Q73.5107-15.4541 72.1191-15.9912Q70.7275-16.5283 69.2871-16.5283Q67.9443-16.5283 66.6016-15.979Q65.2588-15.4297 64.0137-14.3799L49.1455-1.09863Q49.1455 5.68848 52.1851 8.88672Q55.2246 12.085 61.5479 12.085ZM79.3457-22.9004Q83.5205-22.9004 86.4746-25.8911Q89.4287-28.8818 89.4287-33.0811Q89.4287-35.8154 88.0615-38.1104Q86.6943-40.4053 84.4116-41.7847Q82.1289-43.1641 79.3457-43.1641Q75.1709-43.1641 72.2046-40.1855Q69.2383-37.207 69.2383-33.0811Q69.2383-28.8818 72.2046-25.8911Q75.1709-22.9004 79.3457-22.9004ZM58.5938 17.5049L125.122 17.5049Q133.472 17.5049 137.915 13.0981Q142.358 8.69141 142.358 0.366211L142.358-46.6064Q142.358-54.8828 137.915-59.314Q133.472-63.7451 125.122-63.7451L58.5938-63.7451Q50.1953-63.7451 45.7642-59.3262Q41.333-54.9072 41.333-46.6064L41.333 0.366211Q41.333 8.69141 45.7642 13.0981Q50.1953 17.5049 58.5938 17.5049ZM59.9609 4.90723Q57.0068 4.90723 55.4688 3.44238Q53.9307 1.97754 53.9307-1.14746L53.9307-45.0439Q53.9307-48.1689 55.4688-49.6582Q57.0068-51.1475 59.9609-51.1475L123.73-51.1475Q126.66-51.1475 128.21-49.6582Q129.761-48.1689 129.761-45.0439L129.761-1.14746Q129.761 1.97754 128.21 3.44238Q126.66 4.90723 123.73 4.90723Z"/>
  </g>
  <g id="Semibold-M" transform="matrix(1 0 0 1 1966.85 1126)">
   <path class="hierarchical-0:secondary SFSymbolsPreview4D4D4D" d="M20.9579-13.3965Q22.3877-5.49316 27.2404-2.11563Q32.093 1.2619 40.0955-0.133514L47.2992-1.37634L47.2992-12.3947L39.1388-11.0031Q35.9764-10.4454 34.024-11.7752Q32.0717-13.105 31.4659-16.3811L23.7442-60.0739Q23.1384-63.4148 24.5323-65.3435Q25.9262-67.2722 29.1046-67.8291L92.5064-78.9909Q95.636-79.5151 97.6051-78.2101Q99.5743-76.9051 100.18-73.5794L102.517-60.3798L113.535-60.3798L110.638-76.58Q109.243-84.4673 104.374-87.8696Q99.5041-91.272 91.5344-89.8605L26.2871-78.3699Q18.3167-76.9409 14.8811-72.0806Q11.4456-67.2203 12.8571-59.3323Z"/>
   <path class="hierarchical-1:primary clearBehindLayer SFSymbolsPreview212121" d="M59.1927 11.9164L121.98 11.9164Q128.235 11.9164 131.408 8.74023Q134.581 5.56412 134.581-0.863647L134.581-3.32108L111.942-24.5522Q110.604-25.7935 108.996-26.4137Q107.388-27.034 105.659-27.034Q103.976-27.034 102.427-26.4469Q100.878-25.8598 99.424-24.5857L80.5511-7.88193L73.0499-14.682Q71.7422-15.9073 70.3152-16.4623Q68.8881-17.0174 67.4034-17.0174Q66.0339-17.0174 64.6732-16.4455Q63.3125-15.8737 62.0049-14.7797L46.5591-1.12534Q46.5591 5.50156 49.7009 8.70895Q52.8427 11.9164 59.1927 11.9164ZM77.533-23.5405Q81.752-23.5405 84.7328-26.5621Q87.7136-29.5837 87.7136-33.8188Q87.7136-36.5707 86.3377-38.8924Q84.9617-41.214 82.6565-42.6067Q80.3513-43.9995 77.533-43.9995Q73.3315-43.9995 70.343-40.9855Q67.3546-37.9715 67.3546-33.8188Q67.3546-29.5837 70.343-26.5621Q73.3315-23.5405 77.533-23.5405ZM57.2609 16.3048L123.851 16.3048Q131.934 16.3048 136.155 12.125Q140.376 7.94525 140.376-0.104523L140.376-46.74Q140.376-54.7409 136.155-58.9455Q131.934-63.15 123.851-63.15L57.2609-63.15Q49.1112-63.15 44.9066-58.9619Q40.7021-54.7737 40.7021-46.74L40.7021-0.104523Q40.7021 7.94525 44.9066 12.125Q49.1112 16.3048 57.2609 16.3048ZM58.1657 5.43137Q54.9538 5.43137 53.2646 3.79791Q51.5755 2.16446 51.5755-1.21002L51.5755-45.5864Q51.5755-48.9601 53.2646-50.618Q54.9538-52.2758 58.1657-52.2758L122.913-52.2758Q126.092-52.2758 127.797-50.618Q129.503-48.9601 129.503-45.5864L129.503-1.21002Q129.503 2.16446 127.797 3.79791Q126.092 5.43137 122.913 5.43137Z"/>
  </g>
  <g id="Medium-M" transform="matrix(1 0 0 1 1670.89 1126)">
   <path class="hierarchical-0:secondary SFSymbolsPreview4D4D4D" d="M20.9114-13.4102Q22.3137-5.71594 26.9672-2.47955Q31.6208 0.756836 39.4356-0.605774L46.1403-1.754L46.1403-11.4441L38.3644-10.1273Q35.006-9.53598 32.9155-10.9669Q30.825-12.3978 30.1857-15.8623L22.403-59.919Q21.7636-63.4415 23.2517-65.5186Q24.7398-67.5957 28.1075-68.1862L92.1562-79.4632Q95.4742-80.014 97.5849-78.6076Q99.6956-77.2011 100.335-73.6877L102.76-60.0494L112.45-60.0494L109.56-76.1482Q108.199-83.8341 103.524-87.0949Q98.8503-90.3557 91.0759-88.9847L25.8553-77.5009Q18.0809-76.0986 14.78-71.4405Q11.4792-66.7824 12.851-59.0965Z"/>
   <path class="hierarchical-1:primary clearBehindLayer SFSymbolsPreview212121" d="M57.4074 11.7882L121.32 11.7882Q127.615 11.7882 130.852 8.59184Q134.089 5.39551 134.089-1.01852L134.089-3.76587L111.464-25.0648Q110.091-26.339 108.44-26.976Q106.788-27.6131 105.025-27.6131Q103.289-27.6131 101.713-27.0161Q100.137-26.4191 98.6359-25.1045L79.3922-8.06351L71.756-14.9857Q70.401-16.2514 68.9472-16.8194Q67.4934-17.3874 65.9744-17.3874Q64.5851-17.3874 63.2111-16.7992Q61.837-16.2109 60.482-15.0833L44.5984-1.14517Q44.5984 5.36041 47.8176 8.5743Q51.0368 11.7882 57.4074 11.7882ZM76.1581-24.0257Q80.4108-24.0257 83.4118-27.071Q86.4128-30.1163 86.4128-34.3781Q86.4128-37.1437 85.03-39.4855Q83.6472-41.8274 81.3255-43.2301Q79.0039-44.6327 76.1581-44.6327Q71.9368-44.6327 68.9312-41.5916Q65.9256-38.5506 65.9256-34.3781Q65.9256-30.1163 68.9312-27.071Q71.9368-24.0257 76.1581-24.0257ZM56.25 15.3954L122.887 15.3954Q130.769 15.3954 134.821 11.3873Q138.874 7.37915 138.874-0.461578L138.874-46.8407Q138.874-54.6326 134.821-58.6655Q130.769-62.6984 122.887-62.6984L56.25-62.6984Q48.2887-62.6984 44.2562-58.6857Q40.2237-54.673 40.2237-46.8407L40.2237-0.461578Q40.2237 7.37915 44.2562 11.3873Q48.2887 15.3954 56.25 15.3954ZM56.8047 5.82886Q53.3974 5.82886 51.5938 4.06723Q49.7902 2.3056 49.7902-1.25656L49.7902-45.9969Q49.7902-49.5598 51.5938-51.3458Q53.3974-53.1319 56.8047-53.1319L122.293-53.1319Q125.66-53.1319 127.484-51.3458Q129.308-49.5598 129.308-45.9969L129.308-1.25656Q129.308 2.3056 127.484 4.06723Q125.66 5.82886 122.293 5.82886Z"/>
  </g>
  <g id="Regular-M" transform="matrix(1 0 0 1 1375.16 1126)">
   <path class="hierarchical-0:secondary SFSymbolsPreview4D4D4D" d="M20.8496-13.4277Q22.2168-6.00586 26.6113-2.9541Q31.0059 0.0976562 38.5742-1.2207L44.6289-2.24609L44.6289-10.2051L37.3535-8.98438Q33.7402-8.34961 31.4697-9.91211Q29.1992-11.4746 28.5156-15.1855L20.6543-59.7168Q19.9707-63.4766 21.582-65.7471Q23.1934-68.0176 26.8066-68.6523L91.6992-80.0781Q95.2637-80.6641 97.5586-79.126Q99.8535-77.5879 100.537-73.8281L103.076-59.6191L111.035-59.6191L108.154-75.5859Q106.836-83.0078 102.417-86.084Q97.998-89.1602 90.4785-87.8418L25.293-76.3672Q17.7734-75 14.6484-70.6055Q11.5234-66.2109 12.8418-58.7891Z"/>
   <path class="hierarchical-1:primary clearBehindLayer SFSymbolsPreview212121" d="M55.0781 11.6211L120.459 11.6211Q126.807 11.6211 130.127 8.39844Q133.447 5.17578 133.447-1.2207L133.447-4.3457L110.84-25.7324Q109.424-27.0508 107.715-27.71Q106.006-28.3691 104.199-28.3691Q102.393-28.3691 100.781-27.7588Q99.1699-27.1484 97.6074-25.7812L77.8809-8.30078L70.0684-15.3809Q68.6523-16.6992 67.1631-17.2852Q65.6738-17.8711 64.1113-17.8711Q62.6953-17.8711 61.3037-17.2607Q59.9121-16.6504 58.4961-15.4785L42.041-1.17188Q42.041 5.17578 45.3613 8.39844Q48.6816 11.6211 55.0781 11.6211ZM74.3652-24.6582Q78.6621-24.6582 81.6895-27.7344Q84.7168-30.8105 84.7168-35.1074Q84.7168-37.8906 83.3252-40.2588Q81.9336-42.627 79.5898-44.043Q77.2461-45.459 74.3652-45.459Q70.1172-45.459 67.0898-42.3828Q64.0625-39.3066 64.0625-35.1074Q64.0625-30.8105 67.0898-27.7344Q70.1172-24.6582 74.3652-24.6582ZM54.9316 14.209L121.631 14.209Q129.248 14.209 133.081 10.4248Q136.914 6.64062 136.914-0.927734L136.914-46.9727Q136.914-54.4922 133.081-58.3008Q129.248-62.1094 121.631-62.1094L54.9316-62.1094Q47.2168-62.1094 43.4082-58.3252Q39.5996-54.541 39.5996-46.9727L39.5996-0.927734Q39.5996 6.64062 43.4082 10.4248Q47.2168 14.209 54.9316 14.209ZM55.0293 6.34766Q51.3672 6.34766 49.4141 4.41895Q47.4609 2.49023 47.4609-1.31836L47.4609-46.5332Q47.4609-50.3418 49.4141-52.2949Q51.3672-54.248 55.0293-54.248L121.484-54.248Q125.098-54.248 127.075-52.2949Q129.053-50.3418 129.053-46.5332L129.053-1.31836Q129.053 2.49023 127.075 4.41895Q125.098 6.34766 121.484 6.34766Z"/>
  </g>
  <g id="Light-M" transform="matrix(1 0 0 1 1079.53 1126)">
   <path class="hierarchical-0:secondary SFSymbolsPreview4D4D4D" d="M20.8801-12.9433Q22.1413-5.97534 26.3088-3.07503Q30.4764-0.174713 37.5298-1.41754L42.131-2.20032L42.131-8.32825L36.6272-7.39517Q32.5592-6.66962 30.0392-8.4137Q27.5192-10.1578 26.7601-14.2921L18.808-59.3842Q18.0481-63.5674 19.8261-66.0801Q21.6042-68.5928 25.6866-69.3184L91.0179-80.8197Q94.9913-81.4812 97.551-79.7768Q100.111-78.0724 100.87-73.8739L103.394-59.7855L109.491-59.7855L106.731-75.2228Q105.489-82.1754 101.312-85.1002Q97.1352-88.0249 90.1001-86.7973L24.4904-75.2319Q17.4553-73.9708 14.5195-69.8032Q11.5837-65.6357 12.8113-58.6678Z"/>
   <path class="hierarchical-1:primary clearBehindLayer SFSymbolsPreview212121" d="M52.5803 10.6674L119.672 10.6674Q125.671 10.6674 128.765 7.6416Q131.858 4.61578 131.858-1.41754L131.858-4.99649L109.447-25.9445Q107.941-27.3232 106.216-28.0354Q104.492-28.7476 102.564-28.7476Q100.667-28.7476 99.0406-28.0766Q97.4144-27.4055 95.7756-25.9933L75.9438-8.58841L68.222-15.638Q66.7908-16.9716 65.324-17.5877Q63.8573-18.2037 62.204-18.2037Q60.6819-18.2037 59.3132-17.5785Q57.9445-16.9533 56.5132-15.7204L40.3763-1.39923Q40.3763 4.61578 43.462 7.6416Q46.5477 10.6674 52.5803 10.6674ZM72.776-25.0671Q77.0882-25.0671 80.138-28.1582Q83.1879-31.2492 83.1879-35.5766Q83.1879-38.3904 81.7814-40.7734Q80.3749-43.1564 78.0159-44.5877Q75.6569-46.019 72.776-46.019Q68.4669-46.019 65.4247-42.9203Q62.3825-39.8216 62.3825-35.5766Q62.3825-31.2492 65.4247-28.1582Q68.4669-25.0671 72.776-25.0671ZM52.5856 12.9074L120.39 12.9074Q127.507 12.9074 131.128 9.29718Q134.75 5.68695 134.75-1.36642L134.75-47.805Q134.75-54.8248 131.128-58.4518Q127.507-62.0789 120.39-62.0789L52.5856-62.0789Q45.4002-62.0789 41.7961-58.4839Q38.192-54.8889 38.192-47.805L38.192-1.36642Q38.192 5.71747 41.7961 9.31244Q45.4002 12.9074 52.5856 12.9074ZM52.6985 6.86264Q48.5672 6.86264 46.402 4.7142Q44.2368 2.56577 44.2368-1.66626L44.2368-47.4716Q44.2368-51.6891 46.402-53.8616Q48.5672-56.0341 52.6985-56.0341L120.243-56.0341Q124.281-56.0341 126.5-53.8616Q128.72-51.6891 128.72-47.4716L128.72-1.66626Q128.72 2.56577 126.5 4.7142Q124.281 6.86264 120.243 6.86264Z"/>
  </g>
  <g id="Thin-M" transform="matrix(1 0 0 1 784.253 1126)">
   <path class="hierarchical-0:secondary SFSymbolsPreview4D4D4D" d="M20.9198-12.3032Q22.0413-5.93567 25.9083-3.23524Q29.7752-0.534821 36.1488-1.6777L38.8283-2.14081L38.8283-5.84564L35.6659-5.29327Q30.9982-4.44717 28.1475-6.43158Q25.2968-8.41599 24.4377-13.1111L16.3651-58.9432Q15.506-63.6871 17.5041-66.5203Q19.5023-69.3535 24.205-70.1988L90.1169-81.8008Q94.6312-82.5623 97.541-80.6377Q100.451-78.7132 101.311-73.9334L103.815-60.006L107.449-60.006L104.85-74.7421Q103.707-81.0745 99.8508-83.799Q95.9946-86.5234 89.5996-85.4164L23.4299-73.7305Q17.0349-72.6097 14.3494-68.7424Q11.6638-64.875 12.7716-58.5075Z"/>
   <path class="hierarchical-1:primary clearBehindLayer SFSymbolsPreview212121" d="M49.2775 9.40628L118.631 9.40628Q124.17 9.40628 126.963 6.64062Q129.756 3.87497 129.756-1.6777L129.756-5.85709L107.606-26.2245Q105.978-27.6833 104.234-28.4657Q102.49-29.248 100.403-29.248Q98.3849-29.248 96.7384-28.4969Q95.092-27.7458 93.354-26.2733L73.381-8.96835L65.7791-15.9782Q64.328-17.3317 62.8918-17.9882Q61.4555-18.6447 59.6817-18.6447Q58.02-18.6447 56.6811-17.9993Q55.3421-17.3538 53.891-16.0408L38.1737-1.69907Q38.1737 3.87497 40.9492 6.64062Q43.7248 9.40628 49.2775 9.40628ZM70.6741-25.6073Q75.0061-25.6073 78.0861-28.7186Q81.1661-31.8298 81.1661-36.1969Q81.1661-39.0511 79.7394-41.4543Q78.3127-43.8576 75.9338-45.3087Q73.555-46.7598 70.6741-46.7598Q66.2849-46.7598 63.2225-43.631Q60.1601-40.5022 60.1601-36.1969Q60.1601-31.8298 63.2225-28.7186Q66.2849-25.6073 70.6741-25.6073ZM49.4827 11.1855L118.748 11.1855Q125.205 11.1855 128.546 7.80563Q131.887 4.42581 131.887-1.94702L131.887-48.9059Q131.887-55.2658 128.546-58.6525Q125.205-62.0392 118.748-62.0392L49.4827-62.0392Q42.9985-62.0392 39.6645-58.6945Q36.3304-55.3497 36.3304-48.9059L36.3304-1.94702Q36.3304 4.496 39.6645 7.84073Q42.9985 11.1855 49.4827 11.1855ZM49.6155 7.54318Q44.8639 7.54318 42.4183 5.10445Q39.9727 2.66571 39.9727-2.12708L39.9727-48.7129Q39.9727-53.4706 42.4183-55.9334Q44.8639-58.3961 49.6155-58.3961L118.602-58.3961Q123.199-58.3961 125.739-55.9334Q128.279-53.4706 128.279-48.7129L128.279-2.12708Q128.279 2.66571 125.739 5.10445Q123.199 7.54318 118.602 7.54318Z"/>
  </g>
  <g id="Ultralight-M" transform="matrix(1 0 0 1 488.275 1126)">
   <path class="hierarchical-0:secondary SFSymbolsPreview4D4D4D" d="M20.9404-11.9743Q21.9894-5.91507 25.703-3.31726Q29.4167-0.719452 35.4408-1.81122L37.1361-2.10953L37.1361-4.57458L35.1738-4.216Q30.1979-3.30887 27.1782-5.41649Q24.1585-7.52411 23.2483-12.5061L15.1146-58.7181Q14.2036-63.7489 16.3143-66.7461Q18.425-69.7433 23.4467-70.6505L89.6561-82.3029Q94.4466-83.1161 97.5361-81.0787Q100.626-79.0413 101.536-73.9647L104.03-60.1189L106.403-60.1189L103.886-74.4965Q102.795-80.5099 99.102-83.1322Q95.4094-85.7544 89.3433-84.7084L22.8859-72.9614Q16.8198-71.9124 14.2624-68.1988Q11.705-64.4852 12.751-58.4259Z"/>
   <path class="hierarchical-1:primary clearBehindLayer SFSymbolsPreview212121" d="M47.5853 8.76007L118.098 8.76007Q123.401 8.76007 126.04 6.12793Q128.679 3.49579 128.679-1.81122L128.679-6.29807L106.662-26.368Q104.974-27.8679 103.219-28.6861Q101.465-29.5044 99.295-29.5044Q97.216-29.5044 95.5593-28.7125Q93.9026-27.9205 92.1127-26.4168L72.0688-9.16367L64.5287-16.153Q63.0669-17.5163 61.6459-18.1931Q60.2249-18.8698 58.39-18.8698Q56.6559-18.8698 55.3322-18.214Q54.0085-17.5583 52.5475-16.2048L37.0461-1.85318Q37.0461 3.49579 39.6626 6.12793Q42.2791 8.76007 47.5853 8.76007ZM69.5969-25.8842Q73.9395-25.8842 77.0351-29.0058Q80.1308-32.1274 80.1308-36.515Q80.1308-39.389 78.6934-41.8026Q77.256-44.2162 74.8669-45.6776Q72.4777-47.139 69.5969-47.139Q65.1672-47.139 62.0945-43.9949Q59.0218-40.8508 59.0218-36.515Q59.0218-32.1274 62.0945-29.0058Q65.1672-25.8842 69.5969-25.8842ZM47.8928 10.3035L117.907 10.3035Q124.026 10.3035 127.223 7.04155Q130.421 3.7796 130.421-2.24457L130.421-49.4705Q130.421-55.4909 127.223-58.7547Q124.026-62.0186 117.907-62.0186L47.8928-62.0186Q41.7679-62.0186 38.5723-58.802Q35.3767-55.5855 35.3767-49.4705L35.3767-2.24457Q35.3767 3.87039 38.5723 7.08694Q41.7679 10.3035 47.8928 10.3035ZM48.0362 7.89185Q42.9665 7.89185 40.3774 5.30472Q37.7884 2.71759 37.7884-2.36282L37.7884-49.3484Q37.7884-54.3831 40.3774-56.9946Q42.9665-59.6062 48.0362-59.6062L117.76-59.6062Q122.646-59.6062 125.35-56.9946Q128.054-54.3831 128.054-49.3484L128.054-2.36282Q128.054 2.71759 125.35 5.30472Q122.646 7.89185 117.76 7.89185Z"/>
  </g>
  <g id="Black-S" transform="matrix(1 0 0 1 2870.29 696)">
   <path class="hierarchical-0:secondary SFSymbolsPreview4D4D4D" d="M16.6504-18.0176Q17.8711-10.9375 22.5342-7.69043Q27.1973-4.44336 34.2773-5.66406L42.041-7.03125L42.041-21.3867L34.0332-20.0195Q30.7617-19.4336 30.1758-22.7051L24.4141-55.3711Q24.0723-57.2266 24.7559-58.0811Q25.4395-58.9355 27.1484-59.2285L73.9746-67.4805Q75.6348-67.7734 76.5625-67.1875Q77.4902-66.6016 77.832-64.7949L79.2969-56.3965L93.6523-56.3965L91.3574-69.4824Q90.0879-76.5625 85.4492-79.834Q80.8105-83.1055 73.7305-81.8359L22.4609-72.8027Q15.3809-71.582 12.1094-66.8945Q8.83789-62.207 10.1074-55.127Z"/>
   <path class="hierarchical-1:primary clearBehindLayer SFSymbolsPreview212121" d="M54.1016 2.19727L98.4375 2.19727Q103.125 2.19727 105.322-0.195312Q107.52-2.58789 107.52-7.61719L107.52-8.30078L89.7461-24.6094Q88.8184-25.4395 87.7686-25.8545Q86.7188-26.2695 85.498-26.2695Q84.375-26.2695 83.2764-25.8545Q82.1777-25.4395 81.25-24.6094L68.1152-13.0371L62.8418-17.8223Q62.0117-18.6035 61.0107-18.9697Q60.0098-19.3359 58.9844-19.3359Q58.0078-19.3359 56.9824-18.9697Q55.957-18.6035 55.1758-17.8711L45.0195-8.44727Q45.0195-2.73438 47.1191-0.268555Q49.2188 2.19727 54.1016 2.19727ZM66.6992-23.9746Q69.8242-23.9746 72.0947-26.2451Q74.3652-28.5156 74.3652-31.6895Q74.3652-34.8633 72.0947-37.1094Q69.8242-39.3555 66.6992-39.3555Q63.5254-39.3555 61.2549-37.1094Q58.9844-34.8633 58.9844-31.6895Q58.9844-28.5156 61.2549-26.2451Q63.5254-23.9746 66.6992-23.9746ZM49.1699 9.08203L101.221 9.08203Q108.398 9.08203 112.427 5.05371Q116.455 1.02539 116.455-6.15234L116.455-43.8477Q116.455-51.0254 112.427-55.0537Q108.398-59.082 101.221-59.082L49.1699-59.082Q41.9922-59.082 37.9639-55.0537Q33.9355-51.0254 33.9355-43.8477L33.9355-6.15234Q33.9355 1.02539 37.9639 5.05371Q41.9922 9.08203 49.1699 9.08203ZM51.416-5.07812Q49.707-5.07812 48.9014-5.83496Q48.0957-6.5918 48.0957-8.39844L48.0957-41.6016Q48.0957-43.457 48.9014-44.1895Q49.707-44.9219 51.416-44.9219L98.9746-44.9219Q100.635-44.9219 101.465-44.1895Q102.295-43.457 102.295-41.6016L102.295-8.39844Q102.295-6.5918 101.465-5.83496Q100.635-5.07812 98.9746-5.07812Z"/>
  </g>
  <g id="Heavy-S" transform="matrix(1 0 0 1 2574.54 696)">
   <path class="hierarchical-0:secondary SFSymbolsPreview4D4D4D" d="M16.581-18.0984Q17.7673-11.2717 22.171-8.20885Q26.5747-5.14603 33.4358-6.3324L40.6578-7.59583L40.6578-20.2461L32.9842-18.9362Q29.2061-18.2693 28.5278-22.0596L22.6852-55.1865Q22.3091-57.2495 23.1079-58.2943Q23.9067-59.3391 25.8232-59.6664L73.5596-68.0679Q75.4387-68.4074 76.5392-67.6888Q77.6398-66.9701 78.0167-64.9445L79.6082-55.9006L92.2577-55.9006L89.9628-68.9064Q88.7398-75.7446 84.3487-78.8258Q79.9576-81.9069 73.1079-80.6831L21.9307-71.6621Q15.0696-70.4758 11.9709-66.0534Q8.87222-61.631 10.1074-54.8042Z"/>
   <path class="hierarchical-1:primary clearBehindLayer SFSymbolsPreview212121" d="M51.8082 2.13928L97.5616 2.13928Q102.364 2.13928 104.688-0.310898Q107.012-2.76108 107.012-7.82471L107.012-8.86536L89.2159-25.3357Q88.2538-26.2115 87.1407-26.6438Q86.0275-27.076 84.7832-27.076Q83.5915-27.076 82.4524-26.6495Q81.3133-26.223 80.3398-25.3471L66.6748-13.2675L61.1824-18.2373Q60.2829-19.0643 59.2415-19.4538Q58.2001-19.8433 57.1404-19.8433Q56.1409-19.8433 55.0983-19.4538Q54.0558-19.0643 53.1937-18.2861L42.3576-8.44727Q42.3576-2.86102 44.6068-0.36087Q46.8559 2.13928 51.8082 2.13928ZM64.9017-24.6315Q68.0725-24.6315 70.3659-26.931Q72.6593-29.2305 72.6593-32.4501Q72.6593-35.6468 70.3659-37.9276Q68.0725-40.2084 64.9017-40.2084Q61.6814-40.2084 59.388-37.9276Q57.0946-35.6468 57.0946-32.4501Q57.0946-29.2305 59.388-26.931Q61.6814-24.6315 64.9017-24.6315ZM47.9828 7.91779L99.9649 7.91779Q106.911 7.91779 110.727 4.11415Q114.542 0.310516 114.542-6.61316L114.542-43.8934Q114.542-50.8293 110.727-54.6272Q106.911-58.4251 99.9649-58.4251L47.9828-58.4251Q41.024-58.4251 37.2147-54.6272Q33.4053-50.8293 33.4053-43.8934L33.4053-6.61316Q33.4053 0.322723 37.2147 4.12025Q41.024 7.91779 47.9828 7.91779ZM49.7215-4.55933Q47.7936-4.55933 46.8441-5.4718Q45.8946-6.38428 45.8946-8.42133L45.8946-42.0853Q45.8946-44.1597 46.8441-45.0535Q47.7936-45.9473 49.7215-45.9473L98.2254-45.9473Q100.116-45.9473 101.09-45.0535Q102.065-44.1597 102.065-42.0853L102.065-8.42133Q102.065-6.38428 101.09-5.4718Q100.116-4.55933 98.2254-4.55933Z"/>
  </g>
  <g id="Bold-S" transform="matrix(1 0 0 1 2278.89 696)">
   <path class="hierarchical-0:secondary SFSymbolsPreview4D4D4D" d="M16.5039-18.1885Q17.6514-11.6455 21.7651-8.78906Q25.8789-5.93262 32.4951-7.08008L39.1113-8.22754L39.1113-18.9697L31.8115-17.7246Q27.4658-16.9678 26.6846-21.3379L20.752-54.9805Q20.3369-57.2754 21.2646-58.5327Q22.1924-59.79 24.3408-60.1562L73.0957-68.7256Q75.2197-69.1162 76.5137-68.2495Q77.8076-67.3828 78.2227-65.1123L79.9561-55.3467L90.6982-55.3467L88.4033-68.2617Q87.2314-74.8291 83.1177-77.6978Q79.0039-80.5664 72.4121-79.3945L21.3379-70.3857Q14.7217-69.2383 11.8164-65.1123Q8.91113-60.9863 10.1074-54.4434Z"/>
   <path class="hierarchical-1:primary clearBehindLayer SFSymbolsPreview212121" d="M49.2432 2.0752L96.582 2.0752Q101.514 2.0752 103.979-0.439453Q106.445-2.9541 106.445-8.05664L106.445-9.49707L88.623-26.1475Q87.6221-27.0752 86.438-27.5269Q85.2539-27.9785 83.9844-27.9785Q82.7148-27.9785 81.5308-27.5391Q80.3467-27.0996 79.3213-26.1719L65.0635-13.5254L59.3262-18.7012Q58.3496-19.5801 57.2632-19.9951Q56.1768-20.4102 55.0781-20.4102Q54.0527-20.4102 52.9907-19.9951Q51.9287-19.5801 50.9766-18.75L39.3799-8.44727Q39.3799-3.00293 41.7969-0.463867Q44.2139 2.0752 49.2432 2.0752ZM62.8906-25.3662Q66.1133-25.3662 68.4326-27.6978Q70.752-30.0293 70.752-33.3008Q70.752-36.5234 68.4326-38.8428Q66.1133-41.1621 62.8906-41.1621Q59.6191-41.1621 57.2998-38.8428Q54.9805-36.5234 54.9805-33.3008Q54.9805-30.0293 57.2998-27.6978Q59.6191-25.3662 62.8906-25.3662ZM46.6553 6.61621L98.5596 6.61621Q105.249 6.61621 108.826 3.06396Q112.402-0.488281 112.402-7.12891L112.402-43.9453Q112.402-50.6104 108.826-54.1504Q105.249-57.6904 98.5596-57.6904L46.6553-57.6904Q39.9414-57.6904 36.377-54.1504Q32.8125-50.6104 32.8125-43.9453L32.8125-7.12891Q32.8125-0.463867 36.377 3.07617Q39.9414 6.61621 46.6553 6.61621ZM47.8271-3.97949Q45.6543-3.97949 44.5435-5.06592Q43.4326-6.15234 43.4326-8.44727L43.4326-42.627Q43.4326-44.9463 44.5435-46.0205Q45.6543-47.0947 47.8271-47.0947L97.3877-47.0947Q99.5361-47.0947 100.671-46.0205Q101.807-44.9463 101.807-42.627L101.807-8.44727Q101.807-6.15234 100.671-5.06592Q99.5361-3.97949 97.3877-3.97949Z"/>
  </g>
  <g id="Semibold-S" transform="matrix(1 0 0 1 1982.92 696)">
   <path class="hierarchical-0:secondary SFSymbolsPreview4D4D4D" d="M16.4505-18.251Q17.5713-11.9034 21.4851-9.18922Q25.399-6.47507 31.8466-7.59583L38.0447-8.66318L38.0447-18.0901L31.0028-16.8892Q26.2657-16.0706 25.4135-20.8405L19.4191-54.8386Q18.9774-57.2929 19.994-58.6971Q21.0106-60.1013 23.3185-60.4942L72.776-69.1788Q75.0687-69.6053 76.4957-68.6363Q77.9228-67.6674 78.3646-65.2275L80.1964-54.9644L89.6233-54.9644L87.3283-67.8177Q86.1916-74.1982 82.2689-76.9203Q78.3463-79.6425 71.9322-78.5057L20.929-69.5061Q14.4814-68.3853 11.7096-64.4638Q8.93784-60.5423 10.1074-54.1946Z"/>
   <path class="hierarchical-1:primary clearBehindLayer SFSymbolsPreview212121" d="M47.4747 2.03094L95.9068 2.03094Q100.927 2.03094 103.49-0.528336Q106.054-3.08762 106.054-8.21686L106.054-9.93271L88.2141-26.7075Q87.1864-27.6703 85.9535-28.1353Q84.7206-28.6003 83.4335-28.6003Q82.1106-28.6003 80.8952-28.1521Q79.6799-27.7039 78.6194-26.741L63.9526-13.7032L58.0467-19.0208Q57.0168-19.9356 55.899-20.3686Q54.7813-20.8015 53.656-20.8015Q52.6131-20.8015 51.5377-20.3686Q50.4623-19.9356 49.4476-19.0697L37.3268-8.44727Q37.3268-3.10059 39.8594-0.534821Q42.392 2.03094 47.4747 2.03094ZM61.5044-25.8728Q64.7621-25.8728 67.0994-28.2265Q69.4366-30.5801 69.4366-33.8875Q69.4366-37.1277 67.0994-39.4737Q64.7621-41.8198 61.5044-41.8198Q58.197-41.8198 55.8601-39.4737Q53.5233-37.1277 53.5233-33.8875Q53.5233-30.5801 55.8601-28.2265Q58.197-25.8728 61.5044-25.8728ZM45.7397 5.71899L97.5906 5.71899Q104.102 5.71899 107.515 2.33994Q110.927-1.03912 110.927-7.48444L110.927-43.9812Q110.927-50.4593 107.515-53.8216Q104.102-57.1838 97.5906-57.1838L45.7397-57.1838Q39.1953-57.1838 35.7994-53.8216Q32.4036-50.4593 32.4036-43.9812L32.4036-7.48444Q32.4036-1.00632 35.7994 2.35634Q39.1953 5.71899 45.7397 5.71899ZM46.521-3.57971Q44.1788-3.57971 42.9569-4.78592Q41.7351-5.99213 41.7351-8.46481L41.7351-43Q41.7351-45.4887 42.9569-46.6873Q44.1788-47.8859 46.521-47.8859L96.8102-47.8859Q99.1364-47.8859 100.383-46.6873Q101.629-45.4887 101.629-43L101.629-8.46481Q101.629-5.99213 100.383-4.78592Q99.1364-3.57971 96.8102-3.57971Z"/>
  </g>
  <g id="Medium-S" transform="matrix(1 0 0 1 1686.77 696)">
   <path class="hierarchical-0:secondary SFSymbolsPreview4D4D4D" d="M16.4101-18.2976Q17.511-12.0987 21.273-9.49211Q25.0351-6.88553 31.3545-7.98645L37.236-8.99353L37.236-17.4225L30.3894-16.256Q25.3563-15.3893 24.4499-20.4628L18.4082-54.7302Q17.9459-57.3067 19.03-58.8219Q20.1141-60.3371 22.5441-60.7498L72.5334-69.5229Q74.9542-69.9753 76.4824-68.9289Q78.0106-67.8825 78.4729-65.3152L80.378-54.6745L88.8077-54.6745L86.5128-67.4805Q85.4034-73.7198 81.6254-76.3306Q77.8473-78.9413 71.5683-77.832L20.6192-68.8385Q14.2998-67.7383 11.6287-63.9717Q8.95767-60.2051 10.1074-54.0062Z"/>
   <path class="hierarchical-1:primary clearBehindLayer SFSymbolsPreview212121" d="M46.1334 1.99738L95.3941 1.99738Q100.482 1.99738 103.12-0.595474Q105.758-3.18832 105.758-8.33817L105.758-10.2631L87.9044-27.1317Q86.8561-28.1219 85.5862-28.5973Q84.3163-29.0726 83.0154-29.0726Q81.6521-29.0726 80.4134-28.6175Q79.1748-28.1624 78.0869-27.1721L63.1104-13.8382L57.0763-19.2635Q56.0059-20.2049 54.8649-20.6512Q53.7239-21.0976 52.578-21.0976Q51.5213-21.0976 50.436-20.6512Q49.3507-20.2049 48.2887-19.3123L35.7704-8.44727Q35.7704-3.17459 38.3907-0.588608Q41.011 1.99738 46.1334 1.99738ZM60.453-26.2566Q63.7383-26.2566 66.0889-28.6274Q68.4395-30.9982 68.4395-34.3323Q68.4395-37.5862 66.0889-39.9525Q63.7383-42.3187 60.453-42.3187Q57.119-42.3187 54.7684-39.9525Q52.4178-37.5862 52.4178-34.3323Q52.4178-30.9982 54.7684-28.6274Q57.119-26.2566 60.453-26.2566ZM45.0462 5.03769L96.8567 5.03769Q103.233 5.03769 106.521 1.79024Q109.808-1.45721 109.808-7.75375L109.808-44.0079Q109.808-50.3448 106.521-53.5725Q103.233-56.8001 96.8567-56.8001L45.0462-56.8001Q38.6292-56.8001 35.3615-53.5725Q32.0938-50.3448 32.0938-44.0079L32.0938-7.75375Q32.0938-1.41678 35.3615 1.81046Q38.6292 5.03769 45.0462 5.03769ZM45.5299-3.27606Q43.0603-3.27606 41.7542-4.57344Q40.448-5.87082 40.448-8.47855L40.448-43.2831Q40.448-45.8992 41.7542-47.1924Q43.0603-48.4856 45.5299-48.4856L96.3722-48.4856Q98.8327-48.4856 100.163-47.1924Q101.494-45.8992 101.494-43.2831L101.494-8.47855Q101.494-5.87082 100.163-4.57344Q98.8327-3.27606 96.3722-3.27606Z"/>
  </g>
  <g id="Regular-S" transform="matrix(1 0 0 1 1390.79 696)">
   <path class="hierarchical-0:secondary SFSymbolsPreview4D4D4D" d="M16.3574-18.3594Q17.4316-12.3535 20.9961-9.8877Q24.5605-7.42188 30.7129-8.49609L36.1816-9.42383L36.1816-16.5527L29.5898-15.4297Q24.1699-14.502 23.1934-19.9707L17.0898-54.5898Q16.6016-57.3242 17.7734-58.9844Q18.9453-60.6445 21.5332-61.084L72.2168-69.9707Q74.8047-70.459 76.4648-69.3115Q78.125-68.1641 78.6133-65.4297L80.6152-54.2969L87.7441-54.2969L85.4492-67.041Q84.375-73.0957 80.7861-75.5615Q77.1973-78.0273 71.0938-76.9531L20.2148-67.9688Q14.0625-66.8945 11.5234-63.3301Q8.98438-59.7656 10.1074-53.7598Z"/>
   <path class="hierarchical-1:primary clearBehindLayer SFSymbolsPreview212121" d="M44.3848 1.95312L94.7266 1.95312Q99.9023 1.95312 102.637-0.683594Q105.371-3.32031 105.371-8.49609L105.371-10.6934L87.5-27.6855Q86.4258-28.7109 85.1074-29.1992Q83.7891-29.6875 82.4707-29.6875Q81.0547-29.6875 79.7852-29.2236Q78.5156-28.7598 77.3926-27.7344L62.0117-14.0137L55.8105-19.5801Q54.6875-20.5566 53.5156-21.0205Q52.3438-21.4844 51.1719-21.4844Q50.0977-21.4844 48.999-21.0205Q47.9004-20.5566 46.7773-19.6289L33.7402-8.44727Q33.7402-3.27148 36.4746-0.65918Q39.209 1.95312 44.3848 1.95312ZM59.082-26.7578Q62.4023-26.7578 64.7705-29.1504Q67.1387-31.543 67.1387-34.9121Q67.1387-38.1836 64.7705-40.5762Q62.4023-42.9688 59.082-42.9688Q55.7129-42.9688 53.3447-40.5762Q50.9766-38.1836 50.9766-34.9121Q50.9766-31.543 53.3447-29.1504Q55.7129-26.7578 59.082-26.7578ZM44.1406 4.15039L95.8984 4.15039Q102.1 4.15039 105.225 1.07422Q108.35-2.00195 108.35-8.10547L108.35-44.043Q108.35-50.1953 105.225-53.2471Q102.1-56.2988 95.8984-56.2988L44.1406-56.2988Q37.8906-56.2988 34.79-53.2471Q31.6895-50.1953 31.6895-44.043L31.6895-8.10547Q31.6895-1.95312 34.79 1.09863Q37.8906 4.15039 44.1406 4.15039ZM44.2383-2.88086Q41.6016-2.88086 40.1855-4.29688Q38.7695-5.71289 38.7695-8.49609L38.7695-43.6523Q38.7695-46.4355 40.1855-47.8516Q41.6016-49.2676 44.2383-49.2676L95.8008-49.2676Q98.4375-49.2676 99.8779-47.8516Q101.318-46.4355 101.318-43.6523L101.318-8.49609Q101.318-5.71289 99.8779-4.29688Q98.4375-2.88086 95.8008-2.88086Z"/>
  </g>
  <g id="Light-S" transform="matrix(1 0 0 1 1095.04 696)">
   <path class="hierarchical-0:secondary SFSymbolsPreview4D4D4D" d="M16.3727-17.9352Q17.3714-12.323 20.7314-9.99336Q24.0913-7.66373 29.805-8.66241L33.9714-9.37805L33.9714-14.888L28.9543-14.0221Q22.7623-12.9425 21.6492-19.1833L15.4549-54.3022Q14.8911-57.3997 16.222-59.272Q17.5529-61.1443 20.549-61.6745L71.5965-70.6367Q74.5476-71.1853 76.45-69.894Q78.3524-68.6028 78.9009-65.4755L80.8876-54.4334L86.3815-54.4334L84.1774-66.7229Q83.1795-72.3541 79.8023-74.6914Q76.4252-77.0287 70.7611-76.03L19.5038-66.9846Q13.7901-65.9714 11.4174-62.6186Q9.04465-59.2659 10.0769-53.6537Z"/>
   <path class="hierarchical-1:primary clearBehindLayer SFSymbolsPreview212121" d="M42.1745 1.1055L94.0453 1.1055Q98.9037 1.1055 101.426-1.34964Q103.948-3.80478 103.948-8.66241L103.948-11.2839L86.274-27.8671Q85.1242-28.9383 83.7906-29.472Q82.457-30.0056 81.0173-30.0056Q79.5258-30.0056 78.2486-29.4964Q76.9714-28.9871 75.7729-27.916L60.2859-14.2555L54.1756-19.7922Q53.0373-20.7985 51.8883-21.2852Q50.7393-21.772 49.4919-21.772Q48.3269-21.772 47.2431-21.2929Q46.1594-20.8138 45.0363-19.841L32.2723-8.6441Q32.2723-3.77121 34.7946-1.33286Q37.3169 1.1055 42.1745 1.1055ZM57.6591-27.121Q61.01-27.121 63.393-29.5288Q65.7761-31.9366 65.7761-35.3363Q65.7761-38.6375 63.393-41.053Q61.01-43.4685 57.6591-43.4685Q54.2595-43.4685 51.8841-41.053Q49.5087-38.6375 49.5087-35.3363Q49.5087-31.9366 51.8841-29.5288Q54.2595-27.121 57.6591-27.121ZM42.0822 2.98462L94.7937 2.98462Q100.571 2.98462 103.499 0.0751495Q106.427-2.83432 106.427-8.5144L106.427-44.7693Q106.427-50.4829 103.499-53.3756Q100.571-56.2683 94.7937-56.2683L42.0822-56.2683Q36.2862-56.2683 33.3672-53.3833Q30.4482-50.4982 30.4482-44.7693L30.4482-8.5144Q30.4482-2.77023 33.3672 0.107193Q36.2862 2.98462 42.0822 2.98462ZM42.1799-2.42691Q39.119-2.42691 37.5137-4.03976Q35.9085-5.65262 35.9085-8.79898L35.9085-44.4695Q35.9085-47.6311 37.5137-49.2363Q39.119-50.8415 42.1799-50.8415L94.696-50.8415Q97.7112-50.8415 99.3633-49.2363Q101.015-47.6311 101.015-44.4695L101.015-8.79898Q101.015-5.65262 99.3633-4.03976Q97.7112-2.42691 94.696-2.42691Z"/>
  </g>
  <g id="Thin-S" transform="matrix(1 0 0 1 799.597 696)">
   <path class="hierarchical-0:secondary SFSymbolsPreview4D4D4D" d="M16.3925-17.3752Q17.2913-12.2833 20.3812-10.1337Q23.4711-7.98416 28.6034-8.8829L31.0493-9.31854L31.0493-12.6854L28.1136-12.1605Q20.9007-10.881 19.6075-18.1427L13.2935-53.9223Q12.6289-57.4997 14.1701-59.6523Q15.7112-61.805 19.2482-62.455L70.7756-71.5172Q74.2073-72.1466 76.4297-70.665Q78.6522-69.1833 79.2809-65.535L81.2477-54.6135L84.5802-54.6135L82.4959-66.3025Q81.5979-71.373 78.5011-73.5401Q75.4044-75.7072 70.3201-74.8085L18.5623-65.6837Q13.43-64.7499 11.2774-61.6776Q9.12476-58.6052 10.0372-53.5133Z"/>
   <path class="hierarchical-1:primary clearBehindLayer SFSymbolsPreview212121" d="M39.2525-0.0152588L93.1442-0.0152588Q97.5822-0.0152588 99.8245-2.23045Q102.067-4.44565 102.067-8.8829L102.067-12.0644L84.6527-28.1075Q83.4023-29.2381 82.0488-29.8321Q80.6953-30.426 79.0962-30.426Q77.504-30.426 76.2169-29.8565Q74.9298-29.287 73.6313-28.1563L58.004-14.576L52.0142-20.0722Q50.8553-21.1189 49.7364-21.6354Q48.6176-22.1519 47.2694-22.1519Q45.9846-22.1519 44.9211-21.653Q43.8576-21.154 42.7345-20.121L30.3299-8.90427Q30.3299-4.43192 32.5722-2.22359Q34.8145-0.0152588 39.2525-0.0152588ZM55.7777-27.6016Q59.1682-27.6016 61.5715-30.0293Q63.9748-32.457 63.9748-35.8963Q63.9748-39.238 61.5715-41.6836Q59.1682-44.1292 55.7777-44.1292Q52.3384-44.1292 49.9523-41.6836Q47.5662-39.238 47.5662-35.8963Q47.5662-32.457 49.9523-30.0293Q52.3384-27.6016 55.7777-27.6016ZM39.3593 1.44348L93.3319 1.44348Q98.5489 1.44348 101.217-1.24588Q103.885-3.93524 103.885-9.05457L103.885-45.7306Q103.885-50.8629 101.217-53.5458Q98.5489-56.2286 93.3319-56.2286L39.3593-56.2286Q34.1644-56.2286 31.4857-53.5637Q28.8071-50.8987 28.8071-45.7306L28.8071-9.05457Q28.8071-3.85132 31.4857-1.20392Q34.1644 1.44348 39.3593 1.44348ZM39.4569-1.82648Q35.836-1.82648 33.9806-3.69949Q32.1251-5.57251 32.1251-9.19952L32.1251-45.5505Q32.1251-49.2126 33.9806-51.0681Q35.836-52.9236 39.4569-52.9236L93.2343-52.9236Q96.7499-52.9236 98.6824-51.0681Q100.615-49.2126 100.615-45.5505L100.615-9.19952Q100.615-5.57251 98.6824-3.69949Q96.7499-1.82648 93.2343-1.82648Z"/>
  </g>
  <g id="Ultralight-S" transform="matrix(1 0 0 1 503.537 696)">
   <path class="hierarchical-0:secondary SFSymbolsPreview4D4D4D" d="M16.4032-17.0876Q17.2501-12.2627 20.2015-10.2055Q23.1529-8.14819 27.9884-8.99582L29.5517-9.28726L29.5517-11.5578L27.6825-11.2068Q19.9471-9.82437 18.5616-17.6094L12.1857-53.727Q11.47-57.5516 13.1187-59.8473Q14.7675-62.1429 18.5814-62.8548L70.3552-71.9688Q74.0326-72.6387 76.4194-71.0598Q78.8063-69.4809 79.4762-65.5663L81.4323-54.7058L83.6571-54.7058L81.6345-66.0873Q80.7877-70.871 77.8347-72.9507Q74.8817-75.0305 70.0951-74.1829L18.0809-65.0169Q13.2454-64.1243 11.2057-61.1958Q9.16595-58.2672 10.0166-53.4416Z"/>
   <path class="hierarchical-1:primary clearBehindLayer SFSymbolsPreview212121" d="M37.7548-0.589752L92.6834-0.589752Q96.9055-0.589752 99.004-2.68173Q101.102-4.77371 101.102-8.99582L101.102-12.4641L83.8219-28.2303Q82.5203-29.3922 81.1565-30.0167Q79.7928-30.6412 78.1113-30.6412Q76.4687-30.6412 75.1762-30.0411Q73.8838-29.4411 72.5334-28.2791L56.8352-14.74L50.9064-20.2156Q49.7375-21.283 48.634-21.8151Q47.5304-22.3473 46.1311-22.3473Q44.7845-22.3473 43.7313-21.838Q42.6781-21.3287 41.555-20.2644L29.3358-9.03778Q29.3358-4.7699 31.4342-2.67982Q33.5327-0.589752 37.7548-0.589752ZM54.8134-27.8473Q58.2245-27.8473 60.638-30.2856Q63.0516-32.724 63.0516-36.1839Q63.0516-39.5462 60.638-42.0067Q58.2245-44.4672 54.8134-44.4672Q51.3535-44.4672 48.9628-42.0067Q46.5721-39.5462 46.5721-36.1839Q46.5721-32.724 48.9628-30.2856Q51.3535-27.8473 54.8134-27.8473ZM37.9646 0.653839L92.5835 0.653839Q97.5136 0.653839 100.048-1.92299Q102.583-4.49982 102.583-9.33151L102.583-46.2227Q102.583-51.0582 100.048-53.6331Q97.5136-56.208 92.5835-56.208L37.9646-56.208Q33.0772-56.208 30.5214-53.6556Q27.9655-51.1032 27.9655-46.2227L27.9655-9.33151Q27.9655-4.40521 30.5214-1.87569Q33.0772 0.653839 37.9646 0.653839ZM38.0623-1.51825Q34.1545-1.51825 32.1709-3.52478Q30.1872-5.53131 30.1872-9.40399L30.1872-46.1044Q30.1872-50.0229 32.1709-52.0065Q34.1545-53.9902 38.0623-53.9902L92.4858-53.9902Q96.2578-53.9902 98.3341-52.0065Q100.41-50.0229 100.41-46.1044L100.41-9.40399Q100.41-5.53131 98.3341-3.52478Q96.2578-1.51825 92.4858-1.51825Z"/>
  </g>
 </g>
</svg>
